<svg width="6" height="9" viewBox="0 0 6 9" fill="none" xmlns="http://www.w3.org/2000/svg">
<path opacity="0.6" d="M2.06009 5.92985C2.06009 5.56671 2.17167 5.22008 2.39485 4.88996C2.62661 4.55983 2.87554 4.29574 3.14163 4.09766C3.40772 3.89133 3.65236 3.65199 3.87554 3.37964C4.1073 3.10729 4.22318 2.83494 4.22318 2.56259C4.22318 2.27373 4.12017 2.05089 3.91416 1.89409C3.70815 1.73728 3.4206 1.65887 3.0515 1.65887C2.33047 1.65887 1.81974 2.02613 1.51931 2.76066L0 1.91884C0.257511 1.30812 0.665236 0.837689 1.22318 0.507565C1.7897 0.169188 2.4206 0 3.11588 0C3.897 0 4.57082 0.218707 5.13734 0.656121C5.71245 1.08528 6 1.6795 6 2.43879C6 2.78542 5.92275 3.10729 5.76824 3.4044C5.62232 3.70151 5.44206 3.95736 5.22747 4.17194C5.02146 4.37827 4.81116 4.57634 4.59657 4.76616C4.39056 4.94773 4.2103 5.13755 4.05579 5.33563C3.90987 5.5337 3.83691 5.73177 3.83691 5.92985H2.06009ZM3.72103 8.69051C3.50644 8.89684 3.24893 9 2.9485 9C2.64807 9 2.39056 8.89684 2.17597 8.69051C1.96137 8.48418 1.85408 8.23659 1.85408 7.94773C1.85408 7.65887 1.96137 7.41128 2.17597 7.20495C2.39056 6.99862 2.64807 6.89546 2.9485 6.89546C3.24893 6.89546 3.50644 6.99862 3.72103 7.20495C3.93562 7.41128 4.04292 7.65887 4.04292 7.94773C4.04292 8.23659 3.93562 8.48418 3.72103 8.69051Z" fill="#03090F"/>
</svg>
