<svg width="12" height="12" viewBox="0 0 12 12" fill="none" xmlns="http://www.w3.org/2000/svg">
<path d="M0 4.8C0 3.47452 1.07452 2.4 2.4 2.4L2.4 3.6C1.73726 3.6 1.2 4.13726 1.2 4.8H0Z" fill="#2BC26C"/>
<path d="M2.4 3.6L2.4 2.4C2.4 1.07452 3.47452 0 4.8 0V1.2C4.13726 1.2 3.6 1.73726 3.6 2.4V3.6H2.4Z" fill="#2BC26C"/>
<path d="M7.5 1.2C7.00294 1.2 6.6 1.60294 6.6 2.1V9.9C6.6 11.0598 5.6598 12 4.5 12C3.3402 12 2.4 11.0598 2.4 9.9L2.4 9.6H2.1C0.940202 9.6 0 8.6598 0 7.5C0 6.3402 0.940202 5.4 2.1 5.4L4.2 5.4L4.2 6.6L2.1 6.6C1.60294 6.6 1.2 7.00294 1.2 7.5C1.2 7.99706 1.60294 8.4 2.1 8.4L3.6 8.4L3.6 9.9C3.6 10.3971 4.00294 10.8 4.5 10.8C4.99706 10.8 5.4 10.3971 5.4 9.9V2.1C5.4 0.940202 6.3402 0 7.5 0C8.6598 0 9.6 0.940202 9.6 2.1V2.4H9.9C11.0598 2.4 12 3.3402 12 4.5C12 5.6598 11.0598 6.6 9.9 6.6H7.8V5.4H9.9C10.3971 5.4 10.8 4.99706 10.8 4.5C10.8 4.00294 10.3971 3.6 9.9 3.6H8.4V2.1C8.4 1.60294 7.99706 1.2 7.5 1.2Z" fill="#2BC26C"/>
<path d="M9.6 9.6C10.9255 9.6 12 8.52549 12 7.2H10.8C10.8 7.86274 10.2627 8.4 9.6 8.4H8.4V9.6C8.4 10.2627 7.86274 10.8 7.2 10.8V12C8.52548 12 9.6 10.9255 9.6 9.6Z" fill="#2BC26C"/>
</svg>
