<svg width="20" height="20" viewBox="0 0 20 20" fill="none" xmlns="http://www.w3.org/2000/svg">
<path d="M14.1999 7.60005H13.4999V6.22862C13.4999 4.33605 11.9319 2.80005 9.9999 2.80005C8.0679 2.80005 6.4999 4.33605 6.4999 6.22862V7.60005H5.7999C5.0299 7.60005 4.3999 8.21719 4.3999 8.97148V15.8286C4.3999 16.5829 5.0299 17.2001 5.7999 17.2001H14.1999C14.9699 17.2001 15.5999 16.5829 15.5999 15.8286V8.97148C15.5999 8.21719 14.9699 7.60005 14.1999 7.60005ZM9.9999 13.7715C9.2299 13.7715 8.5999 13.1543 8.5999 12.4001C8.5999 11.6458 9.2299 11.0286 9.9999 11.0286C10.7699 11.0286 11.3999 11.6458 11.3999 12.4001C11.3999 13.1543 10.7699 13.7715 9.9999 13.7715ZM7.8999 7.60005V6.22862C7.8999 5.09033 8.8379 4.17148 9.9999 4.17148C11.1619 4.17148 12.0999 5.09033 12.0999 6.22862V7.60005H7.8999Z" fill="#9191A9"/>
</svg>
