<svg width="20" height="16" viewBox="0 0 20 16" fill="none" xmlns="http://www.w3.org/2000/svg">
<path fill-rule="evenodd" clip-rule="evenodd" d="M2.29289 0.29289C2.68342 -0.09763 3.31658 -0.09763 3.70711 0.29289L5.48779 2.07358C6.84344 1.38692 8.37665 1 10.0002 1C14.4778 1 18.2681 3.94288 19.5424 7.99996C18.939 9.9211 17.7715 11.5924 16.2339 12.8197L17.7071 14.2929C18.0976 14.6834 18.0976 15.3166 17.7071 15.7071C17.3166 16.0976 16.6834 16.0976 16.2929 15.7071L2.29289 1.70711C1.90237 1.31658 1.90237 0.68342 2.29289 0.29289ZM9.48201 6.0678L7.96813 4.55391C8.56367 4.20197 9.25838 4 10.0003 4C12.2094 4 14.0003 5.79086 14.0003 8C14.0003 8.7419 13.7983 9.4366 13.4463 10.0321L11.9325 8.5182C11.9767 8.353 12.0003 8.1792 12.0003 8C12.0003 6.89543 11.1048 6 10.0003 6C9.82102 6 9.6473 6.02358 9.48201 6.0678Z" fill="#99A1A8"/>
<path d="M9.74965 11.9923L12.4541 14.6967C11.6689 14.8948 10.8469 15 10.0002 15C5.52257 15 1.73228 12.0571 0.458008 8.00001C0.856368 6.7317 1.50063 5.57224 2.33492 4.57755L6.00798 8.2506C6.1322 10.2601 7.74013 11.8681 9.74965 11.9923Z" fill="#99A1A8"/>
</svg>
