<svg width="32" height="32" viewBox="0 0 32 32" fill="none" xmlns="http://www.w3.org/2000/svg">
<path d="M26.3755 8.67633C28.0705 11.3297 28.4269 13.7025 28.3802 14.9414C28.1386 21.2796 22.556 27.0866 15.9101 27.9123C14.2532 28.1177 12.6865 27.9947 11.272 27.5951C9.72155 27.1578 7.73556 25.8333 6.00952 23.9018L26.3755 8.67633Z" fill="#C1069E"/>
<path d="M16.032 3.99902C22.6779 3.17358 27.8698 7.64289 27.6296 13.9812C27.3883 20.3198 21.8054 26.1267 15.1598 26.9522C8.51426 27.7776 3.32164 23.3086 3.56328 16.97C3.80353 10.6317 9.38644 4.82445 16.032 3.99902Z" fill="#FF00C8"/>
<path d="M15.2208 7.77228C19.3235 7.26277 22.5284 10.0217 22.3797 13.9345C22.2307 17.8479 18.7852 21.4329 14.6819 21.9421C10.5792 22.4516 7.37398 19.693 7.52228 15.7796C7.67162 11.8672 11.1178 8.28179 15.2208 7.77228Z" fill="white"/>
<path d="M15.1463 8.17222C18.9859 7.69498 21.9851 10.2775 21.8458 13.9382C21.7061 17.6002 18.4819 20.955 14.6423 21.4316C10.8034 21.9082 7.80383 19.3267 7.94314 15.665C8.08211 12.0036 11.3074 8.64846 15.1463 8.17222Z" fill="#FF00C8"/>
<path d="M15.0863 8.88204C18.4962 8.45857 21.1601 10.7517 21.0374 14.004C20.9133 17.2567 18.0489 20.2361 14.6387 20.6599C11.2291 21.0837 8.56455 18.7903 8.68796 15.5376C8.81171 12.2856 11.6765 9.30585 15.0863 8.88204Z" fill="white"/>
<path d="M6.58414 11.1476C6.59348 11.1483 6.60281 11.1493 6.61214 11.151C6.62113 11.152 6.63012 11.1536 6.63945 11.156C6.6481 11.1577 6.65777 11.16 6.66642 11.1624C6.67506 11.1651 6.68405 11.1678 6.69234 11.1708C6.75422 11.193 6.80435 11.2286 6.84272 11.2733C6.88075 11.319 6.90633 11.3738 6.91981 11.4343C6.93329 11.4958 6.93329 11.5627 6.91946 11.6322C6.90598 11.7018 6.87867 11.7741 6.83684 11.845C6.80089 11.9058 6.75664 11.9613 6.7079 12.009C6.65847 12.0577 6.60419 12.0984 6.5475 12.131C6.49081 12.1639 6.431 12.1881 6.37085 12.2032C6.31139 12.218 6.25193 12.2238 6.19489 12.2184C6.18556 12.2177 6.17657 12.2164 6.16724 12.215C6.1579 12.2137 6.14926 12.2117 6.13958 12.2096C6.13094 12.2076 6.12161 12.2049 6.11296 12.2026C6.10432 12.1999 6.09568 12.1969 6.08669 12.1942C6.0255 12.1717 5.97572 12.1354 5.93804 12.0897C5.90036 12.0439 5.87513 11.9888 5.86268 11.928C5.85024 11.8672 5.85024 11.7999 5.86407 11.731C5.87824 11.6615 5.90589 11.5899 5.94772 11.5196C5.98333 11.4592 6.02654 11.4047 6.07563 11.357C6.12437 11.3093 6.17761 11.2683 6.23396 11.2363C6.291 11.2034 6.34942 11.1792 6.40853 11.1641C6.46764 11.1486 6.5271 11.1429 6.58414 11.1476Z" fill="white"/>
<path d="M13.6936 5.19477C13.7431 5.19679 13.789 5.20519 13.8319 5.22032C13.8748 5.2351 13.9132 5.25628 13.9463 5.2835C13.9799 5.31072 14.0079 5.34332 14.0293 5.3813C14.0507 5.41928 14.0659 5.46263 14.0729 5.51036C14.0825 5.57691 14.0763 5.64648 14.0563 5.71437C14.0362 5.78326 14.0027 5.85082 13.9584 5.91333C13.9142 5.97584 13.8585 6.03365 13.7953 6.08339C13.732 6.13246 13.6598 6.17413 13.583 6.20237C13.5616 6.2101 13.5402 6.21715 13.5187 6.22287C13.4973 6.22892 13.4765 6.23329 13.4558 6.23665C13.4347 6.24001 13.4143 6.24236 13.3943 6.2437C13.3742 6.24471 13.3542 6.24505 13.3352 6.24404C13.2857 6.24169 13.2394 6.23329 13.1965 6.21749C13.1537 6.20237 13.1156 6.18086 13.0828 6.1533C13.0496 6.12607 13.022 6.0928 13.0012 6.05482C12.9805 6.01684 12.966 5.97349 12.959 5.92509C12.9504 5.85855 12.957 5.78965 12.977 5.7221C12.9971 5.65387 13.0306 5.58766 13.0745 5.52515C13.1188 5.46263 13.1734 5.40584 13.2363 5.35677C13.2992 5.3077 13.3701 5.26703 13.4468 5.23846C13.4682 5.2304 13.4897 5.22334 13.5108 5.21763C13.5319 5.21158 13.5526 5.20687 13.5733 5.20351C13.5941 5.19981 13.6148 5.19746 13.6345 5.19645C13.6542 5.19444 13.6743 5.1941 13.6936 5.19477Z" fill="white"/>
<path d="M7.5812 11.8114C7.58639 11.8114 7.59053 11.8121 7.59537 11.8127C7.60056 11.8134 7.60471 11.8141 7.60886 11.8154C7.6137 11.8168 7.61819 11.8174 7.62303 11.8188C7.62752 11.8201 7.63167 11.8218 7.63651 11.8235C7.66797 11.8346 7.69355 11.8527 7.71291 11.8756C7.73261 11.8988 7.7461 11.9263 7.75266 11.9572C7.75992 11.9882 7.75992 12.0218 7.75301 12.0577C7.74644 12.0927 7.73296 12.1293 7.71153 12.1646C7.6939 12.1955 7.67177 12.2231 7.64688 12.2473C7.62165 12.2715 7.59468 12.2923 7.56564 12.3091C7.53695 12.3256 7.50688 12.3377 7.4768 12.3451C7.44638 12.3525 7.41596 12.3552 7.38727 12.3525C7.38277 12.3521 7.37759 12.3515 7.3731 12.3508C7.36826 12.3501 7.36376 12.3488 7.35892 12.3481C7.35408 12.3471 7.34959 12.3458 7.34509 12.3448C7.3406 12.3431 7.33611 12.3414 7.33161 12.3401C7.3005 12.3283 7.27457 12.3105 7.25521 12.2869C7.23586 12.2644 7.22307 12.2365 7.2165 12.2056C7.20958 12.1747 7.20924 12.1407 7.2165 12.1058C7.22307 12.0705 7.23689 12.0342 7.25798 11.9986C7.27596 11.968 7.29808 11.9404 7.32228 11.9162C7.34682 11.8924 7.37448 11.8715 7.40317 11.8551C7.43186 11.8386 7.46194 11.8262 7.49201 11.8188C7.52209 11.8114 7.55216 11.8087 7.5812 11.8114Z" fill="white"/>
<path d="M13.771 6.63728C13.7963 6.63829 13.8198 6.64333 13.8412 6.65106C13.8626 6.65846 13.8824 6.66955 13.8993 6.68366C13.9162 6.69778 13.9301 6.71425 13.9408 6.73374C13.9515 6.75357 13.9591 6.77508 13.9629 6.79961C13.9674 6.83356 13.9643 6.86885 13.9543 6.90347C13.9442 6.93808 13.9273 6.97236 13.9052 7.00396C13.8827 7.03521 13.8547 7.06479 13.8225 7.08966C13.7904 7.11453 13.7541 7.13503 13.7154 7.14948C13.7047 7.15352 13.694 7.15654 13.6832 7.15923C13.6725 7.16259 13.6618 7.16461 13.6511 7.16629C13.6411 7.1683 13.6307 7.16931 13.6207 7.16965C13.6106 7.17066 13.6006 7.17066 13.5909 7.16998C13.5657 7.16864 13.5418 7.16393 13.5208 7.15587C13.4993 7.14814 13.48 7.13705 13.463 7.12293C13.4464 7.10882 13.4323 7.09168 13.4215 7.07285C13.4108 7.05303 13.4036 7.03084 13.4001 7.00665C13.3953 6.97236 13.3987 6.93741 13.4088 6.90279C13.4188 6.86784 13.4354 6.83423 13.4582 6.80298C13.4807 6.77138 13.508 6.74214 13.5398 6.71761C13.5716 6.69274 13.6072 6.67224 13.6462 6.65779C13.657 6.65409 13.668 6.65073 13.6784 6.64804C13.6891 6.64468 13.7002 6.64266 13.7105 6.64098C13.7206 6.63896 13.7309 6.63796 13.7413 6.63728C13.7517 6.63661 13.7617 6.63661 13.771 6.63728Z" fill="white"/>
<path d="M5.32354 19.5928C5.36226 19.5988 5.39925 19.6089 5.43313 19.6237C5.46735 19.6385 5.4995 19.6577 5.52819 19.6812C5.55654 19.7051 5.58177 19.7333 5.60321 19.7649C5.62499 19.7971 5.64262 19.8334 5.65575 19.8734C5.67822 19.9433 5.68444 20.0186 5.67684 20.0942C5.66923 20.1705 5.64711 20.2472 5.61289 20.3204C5.57866 20.3944 5.53269 20.4636 5.47599 20.5251C5.41965 20.588 5.35327 20.6414 5.27826 20.6834C5.2468 20.7009 5.21465 20.7153 5.18319 20.7274C5.15139 20.7392 5.11993 20.7486 5.08882 20.7547C5.05736 20.7614 5.02694 20.7647 4.99617 20.7654C4.96644 20.7664 4.93706 20.7644 4.90871 20.76C4.87034 20.7536 4.83335 20.7432 4.79948 20.7281C4.76525 20.713 4.73379 20.6931 4.70579 20.669C4.6771 20.6448 4.65256 20.6165 4.63078 20.5843C4.60935 20.5513 4.59275 20.515 4.58031 20.475C4.55818 20.4051 4.55231 20.3302 4.56026 20.2549C4.56855 20.1793 4.59068 20.1033 4.6249 20.0304C4.65913 19.9581 4.70476 19.8886 4.7611 19.8274C4.81711 19.7655 4.88313 19.7124 4.95677 19.6708C4.98822 19.6533 5.02003 19.6388 5.05114 19.6267C5.0826 19.6146 5.11405 19.6052 5.14482 19.5992C5.17628 19.5928 5.2067 19.5891 5.23643 19.5878C5.26581 19.5874 5.29554 19.5888 5.32354 19.5928Z" fill="white"/>
<path d="M6.53404 19.1481C6.55339 19.1508 6.57206 19.1559 6.58969 19.1633C6.60698 19.1707 6.62322 19.1801 6.63774 19.1922C6.65261 19.2039 6.6654 19.218 6.67646 19.2338C6.68718 19.2496 6.69616 19.2681 6.70342 19.288C6.71483 19.3229 6.71829 19.3602 6.71483 19.3982C6.71137 19.4358 6.70031 19.4741 6.68337 19.5108C6.66678 19.5474 6.64327 19.5824 6.61527 19.6133C6.58693 19.6445 6.55339 19.6714 6.51571 19.6923C6.5005 19.701 6.48356 19.7087 6.46766 19.7144C6.45211 19.7205 6.4362 19.7252 6.41996 19.7286C6.4044 19.7316 6.3885 19.7336 6.37329 19.7339C6.35842 19.7346 6.34356 19.7339 6.32904 19.7316C6.30968 19.7286 6.29101 19.7235 6.27373 19.7161C6.2561 19.7087 6.2402 19.6987 6.22568 19.6869C6.21116 19.6751 6.19802 19.6607 6.18765 19.6452C6.17694 19.6291 6.1676 19.6106 6.16103 19.5908C6.14928 19.5558 6.14617 19.5185 6.14997 19.4809C6.15412 19.4436 6.16449 19.4049 6.18178 19.3683C6.19871 19.3323 6.22153 19.2974 6.24953 19.2664C6.27788 19.2352 6.31106 19.2086 6.3484 19.1878C6.36395 19.1791 6.37986 19.1717 6.3961 19.1656C6.41201 19.1596 6.42791 19.1549 6.44346 19.1515C6.45937 19.1481 6.47492 19.1461 6.49013 19.1458C6.50465 19.1448 6.51952 19.1461 6.53404 19.1481Z" fill="white"/>
<path d="M21.1268 7.03016C21.1375 7.03049 21.1486 7.03184 21.1586 7.03318C21.1694 7.03486 21.1797 7.03721 21.1897 7.0399C21.2001 7.04293 21.2101 7.04662 21.2195 7.05032C21.2288 7.05402 21.2385 7.05872 21.2475 7.0641C21.2793 7.08259 21.3038 7.10746 21.3211 7.13602C21.3384 7.16459 21.3481 7.19686 21.3501 7.23147C21.3529 7.26643 21.3474 7.30239 21.3342 7.33835C21.3215 7.37498 21.3004 7.41128 21.2717 7.44523C21.2509 7.46942 21.2281 7.49127 21.2032 7.50975C21.1783 7.52824 21.1517 7.54437 21.1241 7.55681C21.0964 7.56924 21.0681 7.57798 21.0397 7.58369C21.011 7.58974 20.983 7.5921 20.9554 7.59075C20.9443 7.59042 20.9336 7.58907 20.9229 7.58739C20.9128 7.58571 20.9018 7.58302 20.8918 7.58033C20.8824 7.57731 20.8721 7.57361 20.8627 7.56991C20.853 7.56588 20.8437 7.56151 20.8344 7.55613C20.8033 7.53731 20.7791 7.51278 20.7618 7.48388C20.7448 7.45564 20.7352 7.42271 20.7331 7.38809C20.731 7.35381 20.7365 7.31718 20.7497 7.28155C20.7625 7.24525 20.7832 7.20896 20.8119 7.17501C20.832 7.15081 20.8555 7.12964 20.8804 7.11082C20.9046 7.09233 20.9312 7.07687 20.9588 7.0641C20.9858 7.05234 21.0145 7.04293 21.0425 7.03688C21.0708 7.03116 21.0995 7.02915 21.1268 7.03016Z" fill="white"/>
<path d="M22.2118 5.55742C22.2336 5.55809 22.255 5.56011 22.2768 5.56347C22.2979 5.56683 22.3186 5.57053 22.339 5.57591C22.3597 5.58128 22.3794 5.58801 22.3988 5.59607C22.4185 5.60347 22.4368 5.61288 22.4551 5.62262C22.5194 5.65858 22.5692 5.70732 22.6045 5.76311C22.6397 5.81957 22.6598 5.88376 22.665 5.95233C22.6702 6.02122 22.6598 6.09348 22.6342 6.16641C22.6086 6.23867 22.5678 6.31093 22.5108 6.37916C22.4697 6.42823 22.4233 6.47125 22.3732 6.50855C22.3238 6.54619 22.2705 6.57779 22.2152 6.60266C22.1596 6.62719 22.1025 6.64635 22.0458 6.65811C21.9885 6.6692 21.9311 6.67458 21.8758 6.67189C21.854 6.67055 21.8326 6.66853 21.8111 6.66517C21.7897 6.66214 21.7689 6.65811 21.7492 6.6524C21.7282 6.64668 21.7088 6.6403 21.6894 6.63156C21.6701 6.62383 21.6514 6.61442 21.6334 6.60467C21.5695 6.56737 21.5204 6.51863 21.4855 6.46217C21.4513 6.40504 21.4322 6.34118 21.4274 6.27295C21.4226 6.20473 21.4333 6.13247 21.4592 6.06088C21.4848 5.98896 21.5256 5.91737 21.5823 5.85015C21.6231 5.80142 21.6687 5.75907 21.7181 5.72143C21.7676 5.68379 21.8205 5.65321 21.8754 5.62834C21.93 5.60347 21.9864 5.58431 22.0434 5.57255C22.0998 5.56078 22.1565 5.55541 22.2118 5.55742Z" fill="white"/>
<path d="M11.9361 23.5849C11.9762 23.5916 12.0118 23.6067 12.0419 23.6289C12.072 23.6504 12.0962 23.679 12.1135 23.7119C12.1307 23.7455 12.1411 23.7835 12.1439 23.8235C12.1466 23.8638 12.1415 23.9068 12.1273 23.9509C12.1131 23.9945 12.0913 24.0349 12.0647 24.0705C12.0371 24.1055 12.0053 24.1357 11.969 24.1609C11.9333 24.1848 11.8943 24.2029 11.8538 24.2123C11.8137 24.2224 11.7719 24.2248 11.7315 24.2177C11.6914 24.2107 11.6554 24.1962 11.6257 24.1737C11.5956 24.1518 11.5721 24.1229 11.5548 24.09C11.5375 24.0567 11.5272 24.0191 11.5247 23.9788C11.5223 23.9381 11.5275 23.8951 11.542 23.8514C11.5562 23.8077 11.5776 23.768 11.6046 23.7324C11.6323 23.6971 11.6641 23.6669 11.6993 23.6427C11.7353 23.6185 11.7743 23.6003 11.8144 23.5906C11.8545 23.5801 11.8957 23.5778 11.9361 23.5849Z" fill="white"/>
<path d="M11.5402 24.8136C11.6211 24.8274 11.6923 24.8593 11.7521 24.904C11.8122 24.9487 11.861 25.0069 11.8959 25.0744C11.9308 25.142 11.9516 25.2186 11.9567 25.3006C11.9619 25.3826 11.9512 25.4707 11.9232 25.5598C11.8945 25.6488 11.8513 25.7305 11.796 25.8024C11.7414 25.8743 11.6757 25.9358 11.6034 25.9846C11.5312 26.033 11.4524 26.0686 11.3715 26.0884C11.2906 26.1082 11.2069 26.1116 11.1264 26.0965C11.0451 26.0814 10.9739 26.0488 10.9145 26.0037C10.855 25.9577 10.807 25.8992 10.7731 25.8313C10.7392 25.7641 10.7188 25.6865 10.714 25.6045C10.7098 25.5228 10.7209 25.4354 10.7496 25.347C10.7783 25.259 10.8215 25.178 10.8758 25.107C10.93 25.0365 10.995 24.975 11.0662 24.9272C11.1378 24.8788 11.2159 24.8432 11.2965 24.8234C11.3763 24.8036 11.4593 24.7992 11.5402 24.8136Z" fill="white"/>
<path d="M24.352 13.3093C24.3883 13.3127 24.4229 13.3217 24.4533 13.3355C24.4837 13.35 24.511 13.3691 24.5328 13.3927C24.5549 13.4159 24.5719 13.4431 24.5836 13.474C24.5947 13.5046 24.6002 13.5389 24.5988 13.5752C24.5971 13.6172 24.5864 13.6585 24.5681 13.6972C24.5494 13.7355 24.5238 13.7714 24.492 13.8027C24.4609 13.8339 24.4236 13.8605 24.3835 13.8803C24.343 13.9008 24.2984 13.9143 24.2524 13.92C24.2459 13.9207 24.2397 13.9213 24.2331 13.9217C24.2265 13.922 24.2206 13.9223 24.2144 13.9223C24.2082 13.9227 24.2016 13.9227 24.1954 13.9223C24.1892 13.922 24.1833 13.9217 24.1771 13.9213C24.1408 13.918 24.1069 13.9086 24.0765 13.8944C24.0461 13.88 24.0198 13.8605 23.9973 13.8373C23.9755 13.8138 23.9586 13.7862 23.9472 13.7553C23.9365 13.7247 23.931 13.6911 23.9323 13.6548C23.9344 13.6128 23.9451 13.5715 23.9638 13.5331C23.9821 13.4948 24.008 13.4585 24.0388 13.428C24.0703 13.3967 24.1066 13.3701 24.147 13.3503C24.1875 13.3305 24.2314 13.3164 24.2773 13.3107C24.2843 13.31 24.2901 13.3093 24.2963 13.309C24.3029 13.3086 24.3088 13.3086 24.3154 13.3083C24.3216 13.308 24.3271 13.3083 24.3337 13.3086C24.3406 13.3086 24.3468 13.309 24.352 13.3093Z" fill="white"/>
<path d="M26.0703 12.8035C26.1454 12.8099 26.2152 12.8277 26.2778 12.8556C26.34 12.8841 26.3953 12.9224 26.4409 12.9692C26.4866 13.0166 26.5225 13.0717 26.5464 13.1332C26.5706 13.195 26.5827 13.2639 26.5802 13.3365C26.5782 13.4219 26.5571 13.5056 26.5201 13.5835C26.4834 13.6612 26.4319 13.7334 26.3687 13.7973C26.3047 13.8605 26.2304 13.9142 26.1478 13.9552C26.0648 13.9962 25.9749 14.0238 25.8813 14.0349C25.8685 14.0366 25.8557 14.0376 25.8429 14.0389C25.8301 14.0396 25.8176 14.0403 25.8049 14.0403C25.7924 14.0403 25.78 14.0403 25.7682 14.0396C25.7554 14.0396 25.7433 14.0383 25.7312 14.0376C25.6562 14.0305 25.5867 14.012 25.5245 13.9828C25.4619 13.9539 25.4077 13.9149 25.3624 13.8672C25.3178 13.8198 25.2829 13.7643 25.259 13.7025C25.2362 13.6403 25.2244 13.5721 25.2272 13.4995C25.2307 13.4148 25.2514 13.3325 25.2887 13.2552C25.325 13.1779 25.3769 13.1063 25.4398 13.0434C25.5031 12.9809 25.5764 12.9275 25.6576 12.8868C25.7392 12.8458 25.8291 12.8179 25.9217 12.8065C25.9345 12.8048 25.9473 12.8035 25.9601 12.8028C25.9729 12.8018 25.9856 12.8011 25.9977 12.8008C26.0105 12.8008 26.0226 12.8008 26.0354 12.8011C26.0465 12.8018 26.0582 12.8025 26.0703 12.8035Z" fill="white"/>
<path d="M20.2224 21.0572C20.2397 21.0595 20.2573 21.0632 20.2732 21.0686C20.2895 21.074 20.3057 21.0807 20.3213 21.0895C20.3368 21.0975 20.3507 21.1069 20.3645 21.118C20.378 21.1295 20.3901 21.1419 20.4011 21.1557C20.4278 21.1889 20.4454 21.2266 20.4547 21.2659C20.4641 21.3059 20.4647 21.3479 20.4575 21.3896C20.4502 21.4319 20.4347 21.4733 20.4112 21.5126C20.3887 21.5512 20.3576 21.5875 20.3199 21.6188C20.2981 21.6366 20.2757 21.6521 20.2518 21.6645C20.2283 21.6763 20.2041 21.686 20.1792 21.6934C20.1547 21.7005 20.1298 21.7052 20.1056 21.7072C20.081 21.7092 20.0568 21.7082 20.0326 21.7045C20.0153 21.7018 19.9988 21.6978 19.9822 21.6927C19.9652 21.687 19.9493 21.6803 19.9348 21.6716C19.9192 21.6638 19.9051 21.6538 19.8916 21.6427C19.8781 21.6312 19.866 21.6188 19.8546 21.6047C19.8283 21.5717 19.8107 21.5341 19.8017 21.4941C19.7934 21.4545 19.7927 21.4128 19.7996 21.3708C19.8072 21.3291 19.8228 21.2878 19.846 21.2488C19.8684 21.2101 19.8992 21.1735 19.9372 21.1432C19.9583 21.1254 19.9815 21.1103 20.0046 21.0979C20.0281 21.0854 20.0527 21.0757 20.0765 21.0683C20.1011 21.0612 20.1263 21.0569 20.1502 21.0548C20.1747 21.0532 20.1993 21.0538 20.2224 21.0572Z" fill="white"/>
<path d="M21.2607 21.8964C21.2966 21.9018 21.3312 21.9095 21.3651 21.9203C21.399 21.9313 21.4315 21.9458 21.4622 21.9626C21.4933 21.9797 21.5231 21.9996 21.5504 22.0221C21.5784 22.0453 21.604 22.0708 21.6275 22.0991C21.6824 22.1663 21.7187 22.2429 21.7378 22.3246C21.7575 22.4059 21.7595 22.4916 21.745 22.5773C21.7305 22.6627 21.6997 22.748 21.6531 22.8274C21.6064 22.9067 21.5442 22.9803 21.4674 23.0435C21.4232 23.0798 21.3765 23.1103 21.3291 23.1352C21.2807 23.1604 21.2313 23.1799 21.1812 23.194C21.1311 23.2085 21.0809 23.2172 21.0308 23.2206C20.9807 23.2239 20.9319 23.2223 20.8839 23.2142C20.8476 23.2088 20.8127 23.2004 20.7791 23.1887C20.7449 23.1772 20.7131 23.1628 20.682 23.146C20.6509 23.1285 20.6212 23.1083 20.5942 23.0851C20.5672 23.0619 20.5417 23.0361 20.5185 23.0075C20.4646 22.9396 20.4286 22.8623 20.4103 22.7813C20.392 22.7003 20.3906 22.6143 20.4051 22.5292C20.42 22.4445 20.4511 22.3605 20.4978 22.2826C20.5441 22.2036 20.6056 22.131 20.681 22.0685C20.7249 22.0328 20.7709 22.0019 20.8182 21.9774C20.8659 21.9525 20.9143 21.9327 20.9637 21.9179C21.0135 21.9041 21.0637 21.895 21.1131 21.891C21.1639 21.8877 21.213 21.8893 21.2607 21.8964Z" fill="white"/>
<mask id="mask0" mask-type="alpha" maskUnits="userSpaceOnUse" x="6" y="8" width="23" height="21">
<path fill-rule="evenodd" clip-rule="evenodd" d="M26.3755 8.67633C28.0705 11.3297 28.4269 13.7025 28.3802 14.9414C28.1386 21.2796 22.556 27.0866 15.9101 27.9123C14.2532 28.1177 12.6865 27.9947 11.272 27.5951C9.72155 27.1578 7.73556 25.8333 6.00952 23.9018L26.3755 8.67633Z" fill="white"/>
</mask>
<g mask="url(#mask0)">
<path d="M24.3223 21.9475L26.5578 23.8729L29.6691 17.8855L27.4342 15.6935L24.3223 21.9475Z" fill="#C9C9C9"/>
<path d="M27.2513 10.7514L29.4868 12.6772L26.9405 8.26936L24.5991 7.17035L27.2513 10.7514Z" fill="#C9C9C9"/>
<path d="M13.3218 27.0463L15.5577 28.9714L22.0225 27.6993L19.7872 25.5073L13.3218 27.0463Z" fill="#C9C9C9"/>
<path d="M5.771 23.5919L7.38952 26.3317L10.8516 28.077L8.61603 25.885L5.771 23.5919Z" fill="#C9C9C9"/>
</g>
<path fill-rule="evenodd" clip-rule="evenodd" d="M18.3411 12.5413C18.2892 12.1992 18.1416 11.9014 17.9035 11.6551C17.6514 11.3953 17.3213 11.2118 16.8996 11.0911C16.6562 11.0216 16.3924 10.9795 16.0955 10.9607C15.9043 10.9456 13.4005 10.7281 13.3604 10.7281C13.3168 10.7281 13.2819 10.7349 13.2473 10.7497C13.1433 10.7917 13.0735 10.8737 13.0216 11.0316C12.9176 11.3408 10.8904 17.5121 10.8904 17.5121C10.8818 17.5386 10.8766 17.5672 10.8728 17.5894C10.859 17.7191 10.9025 17.7668 11.0415 17.788C11.0415 17.788 11.8145 17.9083 12.1356 17.9571C12.1619 17.9614 12.1878 17.9638 12.2141 17.9638C12.3409 17.9638 12.4225 17.907 12.4834 17.7716C12.5007 17.7248 13.0648 15.9587 13.0648 15.9587C13.117 15.8044 13.2698 15.6381 13.4904 15.6381C13.5128 15.6381 14.2512 15.7325 14.4071 15.7537C14.5983 15.7819 14.7286 15.9143 14.7584 16.1109C14.7635 16.1553 15.0501 17.8942 15.0968 18.15C15.1314 18.3288 15.2064 18.4155 15.3453 18.441C15.3716 18.4457 16.6562 18.6477 16.6787 18.6477C16.7744 18.6477 16.8301 18.6114 16.8529 18.5398C16.8647 18.4894 16.8702 18.4367 16.8647 18.3947C16.8439 18.2569 16.4789 16.072 16.4391 15.8461C16.4135 15.6902 16.4827 15.5483 16.6213 15.4808C16.6527 15.4636 16.7485 15.4216 16.7692 15.4122C17.2733 15.1739 17.6463 14.8674 17.9124 14.4728C18.2025 14.0457 18.3501 13.5375 18.376 12.8875C18.3757 12.8879 18.3757 12.6936 18.3411 12.5413ZM16.6527 13.2592C16.6303 13.5795 16.5141 13.8749 16.2953 14.1304C16.1356 14.3209 15.9185 14.445 15.644 14.4984C15.5538 14.5172 15.3453 14.5525 15.2271 14.5468C15.2271 14.5468 14.1209 14.4201 14.0082 14.4117C13.8865 14.3992 13.7856 14.3498 13.7337 14.2678C13.6777 14.1895 13.6643 14.0867 13.6992 13.9785C13.6992 13.9785 14.0725 12.7991 14.1593 12.5249C14.2111 12.3629 14.3816 12.1995 14.6069 12.1995C14.6246 12.1995 15.4843 12.2842 15.644 12.3034C15.8663 12.3289 16.1912 12.3941 16.436 12.6499C16.5919 12.8156 16.6648 13.0179 16.6527 13.2592Z" fill="#FF00C8"/>
<mask id="mask1" mask-type="alpha" maskUnits="userSpaceOnUse" x="3" y="3" width="25" height="25">
<path fill-rule="evenodd" clip-rule="evenodd" d="M16.032 3.99902C22.6779 3.17358 27.8698 7.64289 27.6296 13.9812C27.3883 20.3198 21.8054 26.1267 15.1598 26.9522C8.51426 27.7776 3.32164 23.3086 3.56328 16.97C3.80353 10.6317 9.38644 4.82445 16.032 3.99902Z" fill="white"/>
</mask>
<g mask="url(#mask1)">
<path d="M27.2613 10.751C23.9313 11.1214 23.6727 10.0345 23.3872 9.51052C23.1493 9.0736 22.9516 8.41655 24.3769 6.24273L25.2408 6.04108L28.3883 9.08167L27.2613 10.751Z" fill="white"/>
<path d="M24.3222 21.9475C23.3162 20.6273 22.5256 19.6174 23.3857 17.822C24.2319 16.0542 26.3894 15.8798 27.4341 15.6939L29.2745 16.2636L26.1464 24.2164L24.3222 21.9475Z" fill="white"/>
<path d="M13.3218 27.0463C13.6529 26.2158 14.3578 24.3784 15.912 23.8817C18.0069 23.2115 18.5801 24.3539 19.7869 25.5073C19.7869 25.5073 21.3905 26.769 21.4199 27.0489C21.4504 27.3282 13.9081 29.0309 13.9081 29.0309L13.3218 27.0463Z" fill="white"/>
<path d="M4.85151 22.3793C6.72619 21.4699 7.69862 21.5771 8.52689 22.4761C9.35586 23.3748 8.80794 24.742 8.61574 25.8948L8.42976 27.4882C8.42976 27.4882 3.54307 23.0051 3.52267 23.0051C3.50297 23.0051 4.85151 22.3793 4.85151 22.3793Z" fill="white"/>
<path d="M4.38048 12.9914C5.5617 13.6434 6.30701 13.9943 5.99658 15.5625C5.68581 17.1307 4.48661 17.6771 3.56361 18.3123H2.46362L2.79168 12.9914H4.38048Z" fill="white"/>
<path d="M11.1522 5.52416C11.1135 6.57948 11.2853 7.51044 10.1404 8.58257C8.82955 9.80929 7.59509 9.34717 6.66588 9.17442C6.66588 9.17442 5.19946 8.58391 5.36366 8.43435C5.52786 8.28446 8.42959 5.61121 8.42959 5.61121L11.1522 4.67352V5.52416Z" fill="white"/>
<path d="M20.5306 4.24473C19.4361 5.48792 18.6798 6.08044 17.2884 6.0391C15.897 5.99776 15.6602 5.25064 15.3518 4.06425C15.3518 4.06425 15.6501 2.50749 15.9239 2.49606C16.1977 2.4853 22.0409 3.06472 22.0409 3.06472L20.5306 4.24473Z" fill="white"/>
</g>
</svg>
