<svg width="42" height="35" viewBox="0 0 42 35" fill="none" xmlns="http://www.w3.org/2000/svg">
<g filter="url(#filter0_i)">
<path d="M15.6296 2.36853C17.0964 1.52168 18.9036 1.52168 20.3704 2.36853L28.62 7.13147C30.0868 7.97832 30.9904 9.54336 30.9904 11.2371V20.7629C30.9904 22.4566 30.0868 24.0217 28.62 24.8685L20.3704 29.6315C18.9036 30.4783 17.0964 30.4783 15.6296 29.6315L7.37999 24.8685C5.9132 24.0217 5.00962 22.4566 5.00962 20.7629V11.2371C5.00962 9.54336 5.9132 7.97832 7.37999 7.13147L15.6296 2.36853Z" fill="url(#paint0_linear)"/>
</g>
<g opacity="0.6" filter="url(#filter1_f)">
<rect x="9" y="26" width="17" height="24" rx="6" transform="rotate(-90 9 26)" fill="#2233CD"/>
</g>
<g filter="url(#filter2_b)">
<path d="M17.2 15.0667C17.6 14.5333 18.4 14.5333 18.8 15.0667L22.8 20.4C23.2944 21.0592 22.824 22 22 22H14C13.176 22 12.7056 21.0592 13.2 20.4L17.2 15.0667Z" fill="white" fill-opacity="0.8"/>
</g>
<g filter="url(#filter3_b)">
<path d="M17.2 11.0667C17.6 10.5333 18.4 10.5333 18.8 11.0667L22.8 16.4C23.2944 17.0592 22.824 18 22 18H14C13.176 18 12.7056 17.0592 13.2 16.4L17.2 11.0667Z" fill="white" fill-opacity="0.8"/>
</g>
<defs>
<filter id="filter0_i" x="5.00964" y="1.7334" width="27.1659" height="29.7184" filterUnits="userSpaceOnUse" color-interpolation-filters="sRGB">
<feFlood flood-opacity="0" result="BackgroundImageFix"/>
<feBlend mode="normal" in="SourceGraphic" in2="BackgroundImageFix" result="shape"/>
<feColorMatrix in="SourceAlpha" type="matrix" values="0 0 0 0 0 0 0 0 0 0 0 0 0 0 0 0 0 0 127 0" result="hardAlpha"/>
<feOffset dx="1.18519" dy="1.38272"/>
<feGaussianBlur stdDeviation="0.592593"/>
<feComposite in2="hardAlpha" operator="arithmetic" k2="-1" k3="1"/>
<feColorMatrix type="matrix" values="0 0 0 0 1 0 0 0 0 1 0 0 0 0 1 0 0 0 0.16 0"/>
<feBlend mode="normal" in2="shape" result="effect1_innerShadow"/>
</filter>
<filter id="filter1_f" x="0.308641" y="0.308641" width="41.3827" height="34.3827" filterUnits="userSpaceOnUse" color-interpolation-filters="sRGB">
<feFlood flood-opacity="0" result="BackgroundImageFix"/>
<feBlend mode="normal" in="SourceGraphic" in2="BackgroundImageFix" result="shape"/>
<feGaussianBlur stdDeviation="4.34568" result="effect1_foregroundBlur"/>
</filter>
<filter id="filter2_b" x="12.233" y="13.9016" width="11.5339" height="8.8636" filterUnits="userSpaceOnUse" color-interpolation-filters="sRGB">
<feFlood flood-opacity="0" result="BackgroundImageFix"/>
<feGaussianBlur in="BackgroundImage" stdDeviation="0.382566"/>
<feComposite in2="SourceAlpha" operator="in" result="effect1_backgroundBlur"/>
<feBlend mode="normal" in="SourceGraphic" in2="effect1_backgroundBlur" result="shape"/>
</filter>
<filter id="filter3_b" x="12.233" y="9.90155" width="11.5339" height="8.8636" filterUnits="userSpaceOnUse" color-interpolation-filters="sRGB">
<feFlood flood-opacity="0" result="BackgroundImageFix"/>
<feGaussianBlur in="BackgroundImage" stdDeviation="0.382566"/>
<feComposite in2="SourceAlpha" operator="in" result="effect1_backgroundBlur"/>
<feBlend mode="normal" in="SourceGraphic" in2="effect1_backgroundBlur" result="shape"/>
</filter>
<linearGradient id="paint0_linear" x1="33" y1="1" x2="11.2751" y2="36.119" gradientUnits="userSpaceOnUse">
<stop stop-color="#668EF4"/>
<stop offset="1" stop-color="#66F4E3"/>
</linearGradient>
</defs>
</svg>
