<svg width="16" height="16" viewBox="0 0 16 16" fill="none" xmlns="http://www.w3.org/2000/svg">
<path fill-rule="evenodd" clip-rule="evenodd" d="M9.18756 4.8H15.3343C14.0998 1.97455 11.2805 0 8 0C6.19868 0 4.53641 0.595343 3.19922 1.6H3.2C5.69633 1.6 7.89594 2.87042 9.18756 4.8ZM16 7.99999C16 8.83616 15.8717 9.64237 15.6337 10.4H8.8C7.47451 10.4 6.4 9.32548 6.4 8C6.4 6.67452 7.47452 5.6 8.8 5.6H15.6337C15.8717 6.35763 16 7.16383 16 7.99999ZM8.79998 8.79999C9.2418 8.79999 9.59998 8.44182 9.59998 7.99999C9.59998 7.55817 9.2418 7.19999 8.79998 7.19999C8.35815 7.19999 7.99998 7.55817 7.99998 7.99999C7.99998 8.44182 8.35815 8.79999 8.79998 8.79999ZM11.2 12.8C9.77844 12.8 8.50118 12.182 7.62227 11.2H14.7778C13.8989 12.182 12.6216 12.8 11.2 12.8ZM2.28685 2.4C0.872253 3.843 0 5.81964 0 8C0 10.3887 1.04687 12.5328 2.70684 13.9987C2.00834 12.9732 1.6 11.7343 1.6 10.4C1.6 7.12419 4.06112 4.42321 7.23518 4.04523C7.27395 4.00635 7.31331 3.96805 7.3532 3.93032C6.23491 2.97554 4.78459 2.4 3.2 2.4H2.28685ZM14.702 12.3702C13.2739 14.5558 10.8056 16 8 16C4.90721 16 2.4 13.4928 2.4 10.4C2.4 7.84067 4.11687 5.68235 6.46171 5.01392C5.91588 5.87821 5.6 6.90222 5.6 8C5.6 11.0928 8.1072 13.6 11.2 13.6C12.5252 13.6 13.7429 13.1397 14.702 12.3702Z" fill="#212121"/>
</svg>
