<svg width="14" height="14" viewBox="0 0 14 14" fill="none" xmlns="http://www.w3.org/2000/svg">
<path fill-rule="evenodd" clip-rule="evenodd" d="M11.5338 8.23247C11.1473 7.84623 10.5219 7.84623 10.1345 8.23247C9.74895 8.61775 9.74895 9.24371 10.1345 9.62994L10.3134 9.80974C9.37864 9.65373 8.69706 9.05916 8.13922 8.28764C7.80985 8.93834 7.50142 9.59379 7.16634 10.1598C7.82127 11.0769 8.64279 11.7561 9.85271 11.7561C10.0345 11.7561 10.2011 11.7561 10.3668 11.7561L10.1326 11.9901C9.74895 12.3735 9.74895 12.9957 10.1326 13.3791C10.5162 13.7624 11.1397 13.7624 11.5224 13.3791L13.3511 11.5525C13.4558 11.4479 13.5262 11.3242 13.5729 11.1929C13.5786 11.1806 13.5843 11.1692 13.59 11.1568C13.7395 10.7982 13.6709 10.3691 13.3787 10.0771L11.5338 8.23247ZM1.28525 5.09694C1.28525 5.09694 2.74934 5.09694 3.18913 5.09694C3.7641 5.09694 4.21913 5.37378 4.61704 5.80377C4.93404 5.20064 5.23961 4.54138 5.5804 3.91446C5.17964 3.47686 4.72176 3.19337 4.14107 3.19337C2.79788 3.19337 1.28525 3.19337 1.28525 3.19337C0.75883 3.19337 0.333313 3.61956 0.333313 4.14563C0.333313 4.67076 0.75883 5.09694 1.28525 5.09694ZM10.3106 4.20081L10.1316 4.37966C9.748 4.76303 9.748 5.38519 10.1316 5.76857C10.5153 6.15195 11.1388 6.15195 11.5215 5.76857L13.3501 3.9411C13.4548 3.83646 13.5253 3.71374 13.5719 3.58341C13.5777 3.57104 13.5834 3.55962 13.5891 3.54631C13.7385 3.18766 13.67 2.75862 13.3777 2.46657L11.5329 0.622926C11.1464 0.236694 10.521 0.236694 10.1335 0.622926C9.748 1.00821 9.748 1.63417 10.1335 2.0204L10.3582 2.24301C10.1954 2.24301 10.0317 2.24301 9.85271 2.24301C6.04495 2.24301 6.04495 8.90219 3.18913 8.90219C2.74934 8.90219 1.28525 8.90219 1.28525 8.90219C0.75883 8.90219 0.333313 9.32743 0.333313 9.85255C0.333313 10.3786 0.75883 10.8039 1.28525 10.8039C1.28525 10.8039 2.79788 10.8039 4.14107 10.8039C6.86552 10.8039 6.9988 4.75828 10.3106 4.20081Z" fill="#F2DBFD"/>
</svg>
