<svg width="20" height="20" viewBox="0 0 20 20" fill="none" xmlns="http://www.w3.org/2000/svg">
<path fill-rule="evenodd" clip-rule="evenodd" d="M11.902 0.705634C9.98886 -0.398935 7.5425 0.256564 6.43794 2.16973L3.11661 7.92243L4.1172 8.50012C4.59549 8.77626 4.75937 9.38785 4.48323 9.86615C4.20708 10.3444 3.59549 10.5083 3.1172 10.2322L2.11661 9.65448L1.43793 10.83C0.333364 12.7432 0.988864 15.1895 2.90203 16.2941L8.09819 19.2941C10.0114 20.3987 12.4577 19.7432 13.5623 17.83L14.1867 16.7484L13.1619 16.1568C12.6836 15.8806 12.5198 15.269 12.7959 14.7907C13.0721 14.3124 13.6836 14.1486 14.1619 14.4247L15.1867 15.0164L18.5623 9.16973C19.6669 7.25657 19.0114 4.8102 17.0982 3.70564L11.902 0.705634ZM7.86603 10.5001C7.38773 10.224 6.77614 10.3879 6.5 10.8661C6.22386 11.3444 6.38773 11.956 6.86602 12.2322L9.5227 13.766C10.001 14.0421 10.6126 13.8783 10.8887 13.4C11.1649 12.9217 11.001 12.3101 10.5227 12.034L7.86603 10.5001Z" fill="white"/>
</svg>
