<svg width="14" height="12" viewBox="0 0 14 12" fill="none" xmlns="http://www.w3.org/2000/svg">
<path d="M1.75101 0.751221C0.784595 0.751221 0.00115967 1.53466 0.00115967 2.50107V3.376H14V2.50107C14 1.53466 13.2166 0.751221 12.2501 0.751221H1.75101Z" fill="#3E76D7"/>
<path fill-rule="evenodd" clip-rule="evenodd" d="M14 5.12585H0.00115967V9.50049C0.00115967 10.4669 0.784595 11.2503 1.75101 11.2503H12.2501C13.2166 11.2503 14 10.4669 14 9.50049V5.12585ZM1.75101 8.62556C1.75101 8.14234 2.14274 7.75064 2.62594 7.75064H3.50087C3.98407 7.75064 4.37579 8.14234 4.37579 8.62556C4.37579 9.10878 3.98407 9.50049 3.50087 9.50049H2.62594C2.14274 9.50049 1.75101 9.10878 1.75101 8.62556ZM6.12565 7.75064C5.64244 7.75064 5.25072 8.14234 5.25072 8.62556C5.25072 9.10878 5.64244 9.50049 6.12565 9.50049H7.00057C7.4838 9.50049 7.8755 9.10878 7.8755 8.62556C7.8755 8.14234 7.4838 7.75064 7.00057 7.75064H6.12565Z" fill="#3E76D7"/>
</svg>
