<svg width="34" height="35" viewBox="0 0 34 35" fill="none" xmlns="http://www.w3.org/2000/svg">
<circle cx="16" cy="19" r="16" fill="white"/>
<path d="M16 4C18.6331 4 21.2197 4.69309 23.5 6.00962C25.7803 7.32614 27.6739 9.21971 28.9904 11.5C30.3069 13.7803 31 16.367 31 19C31 21.6331 30.3069 24.2197 28.9904 26.5" stroke="#F3ABCE" stroke-width="2" stroke-linecap="round" stroke-linejoin="round"/>
<g clip-path="url(#clip0)">
<path d="M26.3755 11.6763C28.0705 14.3297 28.4269 16.7025 28.3802 17.9414C28.1386 24.2796 22.556 30.0866 15.9101 30.9123C14.2532 31.1177 12.6865 30.9947 11.272 30.5951C9.72155 30.1578 7.73556 28.8333 6.00952 26.9018L26.3755 11.6763Z" fill="#C1069E"/>
<path d="M16.032 6.99902C22.6779 6.17358 27.8698 10.6429 27.6296 16.9812C27.3883 23.3198 21.8054 29.1267 15.1598 29.9522C8.51426 30.7776 3.32164 26.3086 3.56328 19.97C3.80353 13.6317 9.38644 7.82445 16.032 6.99902Z" fill="#FF00C8"/>
<path d="M15.2208 10.7723C19.3235 10.2628 22.5284 13.0217 22.3797 16.9345C22.2307 20.8479 18.7852 24.4329 14.6819 24.9421C10.5792 25.4516 7.37398 22.693 7.52228 18.7796C7.67162 14.8672 11.1178 11.2818 15.2208 10.7723Z" fill="white"/>
<path d="M15.1463 11.1722C18.9859 10.695 21.9851 13.2775 21.8458 16.9382C21.7061 20.6002 18.4819 23.955 14.6423 24.4316C10.8034 24.9082 7.80383 22.3267 7.94314 18.665C8.08211 15.0036 11.3074 11.6485 15.1463 11.1722Z" fill="#FF00C8"/>
<path d="M15.0863 11.882C18.4962 11.4586 21.1601 13.7517 21.0374 17.004C20.9133 20.2567 18.0489 23.2361 14.6387 23.6599C11.2291 24.0837 8.56455 21.7903 8.68796 18.5376C8.81171 15.2856 11.6765 12.3058 15.0863 11.882Z" fill="white"/>
<path d="M6.58414 14.1476C6.59348 14.1483 6.60281 14.1493 6.61214 14.151C6.62113 14.152 6.63012 14.1536 6.63945 14.156C6.6481 14.1577 6.65777 14.16 6.66642 14.1624C6.67506 14.1651 6.68405 14.1678 6.69234 14.1708C6.75422 14.193 6.80435 14.2286 6.84272 14.2733C6.88075 14.319 6.90633 14.3738 6.91981 14.4343C6.93329 14.4958 6.93329 14.5627 6.91946 14.6322C6.90598 14.7018 6.87867 14.7741 6.83684 14.845C6.80089 14.9058 6.75664 14.9613 6.7079 15.009C6.65847 15.0577 6.60419 15.0984 6.5475 15.131C6.49081 15.1639 6.431 15.1881 6.37085 15.2032C6.31139 15.218 6.25193 15.2238 6.19489 15.2184C6.18556 15.2177 6.17657 15.2164 6.16724 15.215C6.1579 15.2137 6.14926 15.2117 6.13958 15.2096C6.13094 15.2076 6.12161 15.2049 6.11296 15.2026C6.10432 15.1999 6.09568 15.1969 6.08669 15.1942C6.0255 15.1717 5.97572 15.1354 5.93804 15.0897C5.90036 15.0439 5.87513 14.9888 5.86268 14.928C5.85024 14.8672 5.85024 14.7999 5.86407 14.731C5.87824 14.6615 5.90589 14.5899 5.94772 14.5196C5.98333 14.4592 6.02654 14.4047 6.07563 14.357C6.12437 14.3093 6.17761 14.2683 6.23396 14.2363C6.291 14.2034 6.34942 14.1792 6.40853 14.1641C6.46764 14.1486 6.5271 14.1429 6.58414 14.1476Z" fill="white"/>
<path d="M13.6936 8.19477C13.7431 8.19679 13.789 8.20519 13.8319 8.22032C13.8748 8.2351 13.9132 8.25628 13.9463 8.2835C13.9799 8.31072 14.0079 8.34332 14.0293 8.3813C14.0507 8.41928 14.0659 8.46263 14.0729 8.51036C14.0825 8.57691 14.0763 8.64648 14.0563 8.71437C14.0362 8.78326 14.0027 8.85082 13.9584 8.91333C13.9142 8.97584 13.8585 9.03365 13.7953 9.08339C13.732 9.13246 13.6598 9.17413 13.583 9.20237C13.5616 9.2101 13.5402 9.21715 13.5187 9.22287C13.4973 9.22892 13.4765 9.23329 13.4558 9.23665C13.4347 9.24001 13.4143 9.24236 13.3943 9.2437C13.3742 9.24471 13.3542 9.24505 13.3352 9.24404C13.2857 9.24169 13.2394 9.23329 13.1965 9.21749C13.1537 9.20237 13.1156 9.18086 13.0828 9.1533C13.0496 9.12607 13.022 9.0928 13.0012 9.05482C12.9805 9.01684 12.966 8.97349 12.959 8.92509C12.9504 8.85855 12.957 8.78965 12.977 8.7221C12.9971 8.65387 13.0306 8.58766 13.0745 8.52515C13.1188 8.46263 13.1734 8.40584 13.2363 8.35677C13.2992 8.3077 13.3701 8.26703 13.4468 8.23846C13.4682 8.2304 13.4897 8.22334 13.5108 8.21763C13.5319 8.21158 13.5526 8.20687 13.5733 8.20351C13.5941 8.19981 13.6148 8.19746 13.6345 8.19645C13.6542 8.19444 13.6743 8.1941 13.6936 8.19477Z" fill="white"/>
<path d="M7.5812 14.8114C7.58639 14.8114 7.59053 14.8121 7.59537 14.8127C7.60056 14.8134 7.60471 14.8141 7.60886 14.8154C7.6137 14.8168 7.61819 14.8174 7.62303 14.8188C7.62752 14.8201 7.63167 14.8218 7.63651 14.8235C7.66797 14.8346 7.69355 14.8527 7.71291 14.8756C7.73261 14.8988 7.7461 14.9263 7.75266 14.9572C7.75992 14.9882 7.75992 15.0218 7.75301 15.0577C7.74644 15.0927 7.73296 15.1293 7.71153 15.1646C7.6939 15.1955 7.67177 15.2231 7.64688 15.2473C7.62165 15.2715 7.59468 15.2923 7.56564 15.3091C7.53695 15.3256 7.50688 15.3377 7.4768 15.3451C7.44638 15.3525 7.41596 15.3552 7.38727 15.3525C7.38277 15.3521 7.37759 15.3515 7.3731 15.3508C7.36826 15.3501 7.36376 15.3488 7.35892 15.3481C7.35408 15.3471 7.34959 15.3458 7.34509 15.3448C7.3406 15.3431 7.33611 15.3414 7.33161 15.3401C7.3005 15.3283 7.27457 15.3105 7.25521 15.2869C7.23586 15.2644 7.22307 15.2365 7.2165 15.2056C7.20958 15.1747 7.20924 15.1407 7.2165 15.1058C7.22307 15.0705 7.23689 15.0342 7.25798 14.9986C7.27596 14.968 7.29808 14.9404 7.32228 14.9162C7.34682 14.8924 7.37448 14.8715 7.40317 14.8551C7.43186 14.8386 7.46194 14.8262 7.49201 14.8188C7.52209 14.8114 7.55216 14.8087 7.5812 14.8114Z" fill="white"/>
<path d="M13.771 9.63728C13.7963 9.63829 13.8198 9.64333 13.8412 9.65106C13.8626 9.65846 13.8824 9.66955 13.8993 9.68366C13.9162 9.69778 13.9301 9.71425 13.9408 9.73374C13.9515 9.75357 13.9591 9.77508 13.9629 9.79961C13.9674 9.83356 13.9643 9.86885 13.9543 9.90347C13.9442 9.93808 13.9273 9.97236 13.9052 10.004C13.8827 10.0352 13.8547 10.0648 13.8225 10.0897C13.7904 10.1145 13.7541 10.135 13.7154 10.1495C13.7047 10.1535 13.694 10.1565 13.6832 10.1592C13.6725 10.1626 13.6618 10.1646 13.6511 10.1663C13.6411 10.1683 13.6307 10.1693 13.6207 10.1696C13.6106 10.1707 13.6006 10.1707 13.5909 10.17C13.5657 10.1686 13.5418 10.1639 13.5208 10.1559C13.4993 10.1481 13.48 10.137 13.463 10.1229C13.4464 10.1088 13.4323 10.0917 13.4215 10.0729C13.4108 10.053 13.4036 10.0308 13.4001 10.0066C13.3953 9.97236 13.3987 9.93741 13.4088 9.90279C13.4188 9.86784 13.4354 9.83423 13.4582 9.80298C13.4807 9.77138 13.508 9.74214 13.5398 9.71761C13.5716 9.69274 13.6072 9.67224 13.6462 9.65779C13.657 9.65409 13.668 9.65073 13.6784 9.64804C13.6891 9.64468 13.7002 9.64266 13.7105 9.64098C13.7206 9.63896 13.7309 9.63796 13.7413 9.63728C13.7517 9.63661 13.7617 9.63661 13.771 9.63728Z" fill="white"/>
<path d="M5.32354 22.5928C5.36226 22.5988 5.39925 22.6089 5.43313 22.6237C5.46735 22.6385 5.4995 22.6577 5.52819 22.6812C5.55654 22.7051 5.58177 22.7333 5.60321 22.7649C5.62499 22.7971 5.64262 22.8334 5.65575 22.8734C5.67822 22.9433 5.68444 23.0186 5.67684 23.0942C5.66923 23.1705 5.64711 23.2472 5.61289 23.3204C5.57866 23.3944 5.53269 23.4636 5.47599 23.5251C5.41965 23.588 5.35327 23.6414 5.27826 23.6834C5.2468 23.7009 5.21465 23.7153 5.18319 23.7274C5.15139 23.7392 5.11993 23.7486 5.08882 23.7547C5.05736 23.7614 5.02694 23.7647 4.99617 23.7654C4.96644 23.7664 4.93706 23.7644 4.90871 23.76C4.87034 23.7536 4.83335 23.7432 4.79948 23.7281C4.76525 23.713 4.73379 23.6931 4.70579 23.669C4.6771 23.6448 4.65256 23.6165 4.63078 23.5843C4.60935 23.5513 4.59275 23.515 4.58031 23.475C4.55818 23.4051 4.55231 23.3302 4.56026 23.2549C4.56855 23.1793 4.59068 23.1033 4.6249 23.0304C4.65913 22.9581 4.70476 22.8886 4.7611 22.8274C4.81711 22.7655 4.88313 22.7124 4.95677 22.6708C4.98822 22.6533 5.02003 22.6388 5.05114 22.6267C5.0826 22.6146 5.11405 22.6052 5.14482 22.5992C5.17628 22.5928 5.2067 22.5891 5.23643 22.5878C5.26581 22.5874 5.29554 22.5888 5.32354 22.5928Z" fill="white"/>
<path d="M6.53404 22.1481C6.55339 22.1508 6.57206 22.1559 6.58969 22.1633C6.60698 22.1707 6.62322 22.1801 6.63774 22.1922C6.65261 22.2039 6.6654 22.218 6.67646 22.2338C6.68718 22.2496 6.69616 22.2681 6.70342 22.288C6.71483 22.3229 6.71829 22.3602 6.71483 22.3982C6.71137 22.4358 6.70031 22.4741 6.68337 22.5108C6.66678 22.5474 6.64327 22.5824 6.61527 22.6133C6.58693 22.6445 6.55339 22.6714 6.51571 22.6923C6.5005 22.701 6.48356 22.7087 6.46766 22.7144C6.45211 22.7205 6.4362 22.7252 6.41996 22.7286C6.4044 22.7316 6.3885 22.7336 6.37329 22.7339C6.35842 22.7346 6.34356 22.7339 6.32904 22.7316C6.30968 22.7286 6.29101 22.7235 6.27373 22.7161C6.2561 22.7087 6.2402 22.6987 6.22568 22.6869C6.21116 22.6751 6.19802 22.6607 6.18765 22.6452C6.17694 22.6291 6.1676 22.6106 6.16103 22.5908C6.14928 22.5558 6.14617 22.5185 6.14997 22.4809C6.15412 22.4436 6.16449 22.4049 6.18178 22.3683C6.19871 22.3323 6.22153 22.2974 6.24953 22.2664C6.27788 22.2352 6.31106 22.2086 6.3484 22.1878C6.36395 22.1791 6.37986 22.1717 6.3961 22.1656C6.41201 22.1596 6.42791 22.1549 6.44346 22.1515C6.45937 22.1481 6.47492 22.1461 6.49013 22.1458C6.50465 22.1448 6.51952 22.1461 6.53404 22.1481Z" fill="white"/>
<path d="M21.1268 10.0302C21.1375 10.0305 21.1486 10.0318 21.1586 10.0332C21.1694 10.0349 21.1797 10.0372 21.1897 10.0399C21.2001 10.0429 21.2101 10.0466 21.2195 10.0503C21.2288 10.054 21.2385 10.0587 21.2475 10.0641C21.2793 10.0826 21.3038 10.1075 21.3211 10.136C21.3384 10.1646 21.3481 10.1969 21.3501 10.2315C21.3529 10.2664 21.3474 10.3024 21.3342 10.3383C21.3215 10.375 21.3004 10.4113 21.2717 10.4452C21.2509 10.4694 21.2281 10.4913 21.2032 10.5098C21.1783 10.5282 21.1517 10.5444 21.1241 10.5568C21.0964 10.5692 21.0681 10.578 21.0397 10.5837C21.011 10.5897 20.983 10.5921 20.9554 10.5908C20.9443 10.5904 20.9336 10.5891 20.9229 10.5874C20.9128 10.5857 20.9018 10.583 20.8918 10.5803C20.8824 10.5773 20.8721 10.5736 20.8627 10.5699C20.853 10.5659 20.8437 10.5615 20.8344 10.5561C20.8033 10.5373 20.7791 10.5128 20.7618 10.4839C20.7448 10.4556 20.7352 10.4227 20.7331 10.3881C20.731 10.3538 20.7365 10.3172 20.7497 10.2816C20.7625 10.2453 20.7832 10.209 20.8119 10.175C20.832 10.1508 20.8555 10.1296 20.8804 10.1108C20.9046 10.0923 20.9312 10.0769 20.9588 10.0641C20.9858 10.0523 21.0145 10.0429 21.0425 10.0369C21.0708 10.0312 21.0995 10.0291 21.1268 10.0302Z" fill="white"/>
<path d="M22.2118 8.55742C22.2336 8.55809 22.255 8.56011 22.2768 8.56347C22.2979 8.56683 22.3186 8.57053 22.339 8.57591C22.3597 8.58128 22.3794 8.58801 22.3988 8.59607C22.4185 8.60347 22.4368 8.61288 22.4551 8.62262C22.5194 8.65858 22.5692 8.70732 22.6045 8.76311C22.6397 8.81957 22.6598 8.88376 22.665 8.95233C22.6702 9.02122 22.6598 9.09348 22.6342 9.16641C22.6086 9.23867 22.5678 9.31093 22.5108 9.37916C22.4697 9.42823 22.4233 9.47125 22.3732 9.50855C22.3238 9.54619 22.2705 9.57779 22.2152 9.60266C22.1596 9.62719 22.1025 9.64635 22.0458 9.65811C21.9885 9.6692 21.9311 9.67458 21.8758 9.67189C21.854 9.67055 21.8326 9.66853 21.8111 9.66517C21.7897 9.66214 21.7689 9.65811 21.7492 9.6524C21.7282 9.64668 21.7088 9.6403 21.6894 9.63156C21.6701 9.62383 21.6514 9.61442 21.6334 9.60467C21.5695 9.56737 21.5204 9.51863 21.4855 9.46217C21.4513 9.40504 21.4322 9.34118 21.4274 9.27295C21.4226 9.20473 21.4333 9.13247 21.4592 9.06088C21.4848 8.98896 21.5256 8.91737 21.5823 8.85015C21.6231 8.80142 21.6687 8.75907 21.7181 8.72143C21.7676 8.68379 21.8205 8.65321 21.8754 8.62834C21.93 8.60347 21.9864 8.58431 22.0434 8.57255C22.0998 8.56078 22.1565 8.55541 22.2118 8.55742Z" fill="white"/>
<path d="M11.9361 26.5849C11.9762 26.5916 12.0118 26.6067 12.0419 26.6289C12.072 26.6504 12.0962 26.679 12.1135 26.7119C12.1307 26.7455 12.1411 26.7835 12.1439 26.8235C12.1466 26.8638 12.1415 26.9068 12.1273 26.9509C12.1131 26.9945 12.0913 27.0349 12.0647 27.0705C12.0371 27.1055 12.0053 27.1357 11.969 27.1609C11.9333 27.1848 11.8943 27.2029 11.8538 27.2123C11.8137 27.2224 11.7719 27.2248 11.7315 27.2177C11.6914 27.2107 11.6554 27.1962 11.6257 27.1737C11.5956 27.1518 11.5721 27.1229 11.5548 27.09C11.5375 27.0567 11.5272 27.0191 11.5247 26.9788C11.5223 26.9381 11.5275 26.8951 11.542 26.8514C11.5562 26.8077 11.5776 26.768 11.6046 26.7324C11.6323 26.6971 11.6641 26.6669 11.6993 26.6427C11.7353 26.6185 11.7743 26.6003 11.8144 26.5906C11.8545 26.5801 11.8957 26.5778 11.9361 26.5849Z" fill="white"/>
<path d="M11.5402 27.8136C11.6211 27.8274 11.6923 27.8593 11.7521 27.904C11.8122 27.9487 11.861 28.0069 11.8959 28.0744C11.9308 28.142 11.9516 28.2186 11.9567 28.3006C11.9619 28.3826 11.9512 28.4707 11.9232 28.5598C11.8945 28.6488 11.8513 28.7305 11.796 28.8024C11.7414 28.8743 11.6757 28.9358 11.6034 28.9846C11.5312 29.033 11.4524 29.0686 11.3715 29.0884C11.2906 29.1082 11.2069 29.1116 11.1264 29.0965C11.0451 29.0814 10.9739 29.0488 10.9145 29.0037C10.855 28.9577 10.807 28.8992 10.7731 28.8313C10.7392 28.7641 10.7188 28.6865 10.714 28.6045C10.7098 28.5228 10.7209 28.4354 10.7496 28.347C10.7783 28.259 10.8215 28.178 10.8758 28.107C10.93 28.0365 10.995 27.975 11.0662 27.9272C11.1378 27.8788 11.2159 27.8432 11.2965 27.8234C11.3763 27.8036 11.4593 27.7992 11.5402 27.8136Z" fill="white"/>
<path d="M24.352 16.3093C24.3883 16.3127 24.4229 16.3217 24.4533 16.3355C24.4837 16.35 24.511 16.3691 24.5328 16.3927C24.5549 16.4159 24.5719 16.4431 24.5836 16.474C24.5947 16.5046 24.6002 16.5389 24.5988 16.5752C24.5971 16.6172 24.5864 16.6585 24.5681 16.6972C24.5494 16.7355 24.5238 16.7714 24.492 16.8027C24.4609 16.8339 24.4236 16.8605 24.3835 16.8803C24.343 16.9008 24.2984 16.9143 24.2524 16.92C24.2459 16.9207 24.2397 16.9213 24.2331 16.9217C24.2265 16.922 24.2206 16.9223 24.2144 16.9223C24.2082 16.9227 24.2016 16.9227 24.1954 16.9223C24.1892 16.922 24.1833 16.9217 24.1771 16.9213C24.1408 16.918 24.1069 16.9086 24.0765 16.8944C24.0461 16.88 24.0198 16.8605 23.9973 16.8373C23.9755 16.8138 23.9586 16.7862 23.9472 16.7553C23.9365 16.7247 23.931 16.6911 23.9323 16.6548C23.9344 16.6128 23.9451 16.5715 23.9638 16.5331C23.9821 16.4948 24.008 16.4585 24.0388 16.428C24.0703 16.3967 24.1066 16.3701 24.147 16.3503C24.1875 16.3305 24.2314 16.3164 24.2773 16.3107C24.2843 16.31 24.2901 16.3093 24.2963 16.309C24.3029 16.3086 24.3088 16.3086 24.3154 16.3083C24.3216 16.308 24.3271 16.3083 24.3337 16.3086C24.3406 16.3086 24.3468 16.309 24.352 16.3093Z" fill="white"/>
<path d="M26.0703 15.8035C26.1454 15.8099 26.2152 15.8277 26.2778 15.8556C26.34 15.8841 26.3953 15.9224 26.4409 15.9692C26.4866 16.0166 26.5225 16.0717 26.5464 16.1332C26.5706 16.195 26.5827 16.2639 26.5802 16.3365C26.5782 16.4219 26.5571 16.5056 26.5201 16.5835C26.4834 16.6612 26.4319 16.7334 26.3687 16.7973C26.3047 16.8605 26.2304 16.9142 26.1478 16.9552C26.0648 16.9962 25.9749 17.0238 25.8813 17.0349C25.8685 17.0366 25.8557 17.0376 25.8429 17.0389C25.8301 17.0396 25.8176 17.0403 25.8049 17.0403C25.7924 17.0403 25.78 17.0403 25.7682 17.0396C25.7554 17.0396 25.7433 17.0383 25.7312 17.0376C25.6562 17.0305 25.5867 17.012 25.5245 16.9828C25.4619 16.9539 25.4077 16.9149 25.3624 16.8672C25.3178 16.8198 25.2829 16.7643 25.259 16.7025C25.2362 16.6403 25.2244 16.5721 25.2272 16.4995C25.2307 16.4148 25.2514 16.3325 25.2887 16.2552C25.325 16.1779 25.3769 16.1063 25.4398 16.0434C25.5031 15.9809 25.5764 15.9275 25.6576 15.8868C25.7392 15.8458 25.8291 15.8179 25.9217 15.8065C25.9345 15.8048 25.9473 15.8035 25.9601 15.8028C25.9729 15.8018 25.9856 15.8011 25.9977 15.8008C26.0105 15.8008 26.0226 15.8008 26.0354 15.8011C26.0465 15.8018 26.0582 15.8025 26.0703 15.8035Z" fill="white"/>
<path d="M20.2224 24.0572C20.2397 24.0595 20.2573 24.0632 20.2732 24.0686C20.2895 24.074 20.3057 24.0807 20.3213 24.0895C20.3368 24.0975 20.3507 24.1069 20.3645 24.118C20.378 24.1295 20.3901 24.1419 20.4011 24.1557C20.4278 24.1889 20.4454 24.2266 20.4547 24.2659C20.4641 24.3059 20.4647 24.3479 20.4575 24.3896C20.4502 24.4319 20.4347 24.4733 20.4112 24.5126C20.3887 24.5512 20.3576 24.5875 20.3199 24.6188C20.2981 24.6366 20.2757 24.6521 20.2518 24.6645C20.2283 24.6763 20.2041 24.686 20.1792 24.6934C20.1547 24.7005 20.1298 24.7052 20.1056 24.7072C20.081 24.7092 20.0568 24.7082 20.0326 24.7045C20.0153 24.7018 19.9988 24.6978 19.9822 24.6927C19.9652 24.687 19.9493 24.6803 19.9348 24.6716C19.9192 24.6638 19.9051 24.6538 19.8916 24.6427C19.8781 24.6312 19.866 24.6188 19.8546 24.6047C19.8283 24.5717 19.8107 24.5341 19.8017 24.4941C19.7934 24.4545 19.7927 24.4128 19.7996 24.3708C19.8072 24.3291 19.8228 24.2878 19.846 24.2488C19.8684 24.2101 19.8992 24.1735 19.9372 24.1432C19.9583 24.1254 19.9815 24.1103 20.0046 24.0979C20.0281 24.0854 20.0527 24.0757 20.0765 24.0683C20.1011 24.0612 20.1263 24.0569 20.1502 24.0548C20.1747 24.0532 20.1993 24.0538 20.2224 24.0572Z" fill="white"/>
<path d="M21.2607 24.8964C21.2966 24.9018 21.3312 24.9095 21.3651 24.9203C21.399 24.9313 21.4315 24.9458 21.4622 24.9626C21.4933 24.9797 21.5231 24.9996 21.5504 25.0221C21.5784 25.0453 21.604 25.0708 21.6275 25.0991C21.6824 25.1663 21.7187 25.2429 21.7378 25.3246C21.7575 25.4059 21.7595 25.4916 21.745 25.5773C21.7305 25.6627 21.6997 25.748 21.6531 25.8274C21.6064 25.9067 21.5442 25.9803 21.4674 26.0435C21.4232 26.0798 21.3765 26.1103 21.3291 26.1352C21.2807 26.1604 21.2313 26.1799 21.1812 26.194C21.1311 26.2085 21.0809 26.2172 21.0308 26.2206C20.9807 26.2239 20.9319 26.2223 20.8839 26.2142C20.8476 26.2088 20.8127 26.2004 20.7791 26.1887C20.7449 26.1772 20.7131 26.1628 20.682 26.146C20.6509 26.1285 20.6212 26.1083 20.5942 26.0851C20.5672 26.0619 20.5417 26.0361 20.5185 26.0075C20.4646 25.9396 20.4286 25.8623 20.4103 25.7813C20.392 25.7003 20.3906 25.6143 20.4051 25.5292C20.42 25.4445 20.4511 25.3605 20.4978 25.2826C20.5441 25.2036 20.6056 25.131 20.681 25.0685C20.7249 25.0328 20.7709 25.0019 20.8182 24.9774C20.8659 24.9525 20.9143 24.9327 20.9637 24.9179C21.0135 24.9041 21.0637 24.895 21.1131 24.891C21.1639 24.8877 21.213 24.8893 21.2607 24.8964Z" fill="white"/>
<mask id="mask0" mask-type="alpha" maskUnits="userSpaceOnUse" x="6" y="11" width="23" height="21">
<path fill-rule="evenodd" clip-rule="evenodd" d="M26.3755 11.6763C28.0705 14.3297 28.4269 16.7025 28.3802 17.9414C28.1386 24.2796 22.556 30.0866 15.9101 30.9123C14.2532 31.1177 12.6865 30.9947 11.272 30.5951C9.72155 30.1578 7.73556 28.8333 6.00952 26.9018L26.3755 11.6763Z" fill="white"/>
</mask>
<g mask="url(#mask0)">
<path d="M24.3223 24.9475L26.5578 26.8729L29.6691 20.8855L27.4342 18.6935L24.3223 24.9475Z" fill="#C9C9C9"/>
<path d="M27.2513 13.7514L29.4868 15.6772L26.9405 11.2694L24.5991 10.1703L27.2513 13.7514Z" fill="#C9C9C9"/>
<path d="M13.3218 30.0463L15.5577 31.9714L22.0225 30.6993L19.7872 28.5073L13.3218 30.0463Z" fill="#C9C9C9"/>
<path d="M5.771 26.5919L7.38952 29.3317L10.8516 31.077L8.61603 28.885L5.771 26.5919Z" fill="#C9C9C9"/>
</g>
<path fill-rule="evenodd" clip-rule="evenodd" d="M18.3411 15.5413C18.2892 15.1992 18.1416 14.9014 17.9035 14.6551C17.6514 14.3953 17.3213 14.2118 16.8996 14.0911C16.6562 14.0216 16.3924 13.9795 16.0955 13.9607C15.9043 13.9456 13.4005 13.7281 13.3604 13.7281C13.3168 13.7281 13.2819 13.7349 13.2473 13.7497C13.1433 13.7917 13.0735 13.8737 13.0216 14.0316C12.9176 14.3408 10.8904 20.5121 10.8904 20.5121C10.8818 20.5386 10.8766 20.5672 10.8728 20.5894C10.859 20.7191 10.9025 20.7668 11.0415 20.788C11.0415 20.788 11.8145 20.9083 12.1356 20.9571C12.1619 20.9614 12.1878 20.9638 12.2141 20.9638C12.3409 20.9638 12.4225 20.907 12.4834 20.7716C12.5007 20.7248 13.0648 18.9587 13.0648 18.9587C13.117 18.8044 13.2698 18.6381 13.4904 18.6381C13.5128 18.6381 14.2512 18.7325 14.4071 18.7537C14.5983 18.7819 14.7286 18.9143 14.7584 19.1109C14.7635 19.1553 15.0501 20.8942 15.0968 21.15C15.1314 21.3288 15.2064 21.4155 15.3453 21.441C15.3716 21.4457 16.6562 21.6477 16.6787 21.6477C16.7744 21.6477 16.8301 21.6114 16.8529 21.5398C16.8647 21.4894 16.8702 21.4367 16.8647 21.3947C16.8439 21.2569 16.4789 19.072 16.4391 18.8461C16.4135 18.6902 16.4827 18.5483 16.6213 18.4808C16.6527 18.4636 16.7485 18.4216 16.7692 18.4122C17.2733 18.1739 17.6463 17.8674 17.9124 17.4728C18.2025 17.0457 18.3501 16.5375 18.376 15.8875C18.3757 15.8879 18.3757 15.6936 18.3411 15.5413ZM16.6527 16.2592C16.6303 16.5795 16.5141 16.8749 16.2953 17.1304C16.1356 17.3209 15.9185 17.445 15.644 17.4984C15.5538 17.5172 15.3453 17.5525 15.2271 17.5468C15.2271 17.5468 14.1209 17.4201 14.0082 17.4117C13.8865 17.3992 13.7856 17.3498 13.7337 17.2678C13.6777 17.1895 13.6643 17.0867 13.6992 16.9785C13.6992 16.9785 14.0725 15.7991 14.1593 15.5249C14.2111 15.3629 14.3816 15.1995 14.6069 15.1995C14.6246 15.1995 15.4843 15.2842 15.644 15.3034C15.8663 15.3289 16.1912 15.3941 16.436 15.6499C16.5919 15.8156 16.6648 16.0179 16.6527 16.2592Z" fill="#FF00C8"/>
<mask id="mask1" mask-type="alpha" maskUnits="userSpaceOnUse" x="3" y="6" width="25" height="25">
<path fill-rule="evenodd" clip-rule="evenodd" d="M16.032 6.99902C22.6779 6.17358 27.8698 10.6429 27.6296 16.9812C27.3883 23.3198 21.8054 29.1267 15.1598 29.9522C8.51426 30.7776 3.32164 26.3086 3.56328 19.97C3.80353 13.6317 9.38644 7.82445 16.032 6.99902Z" fill="white"/>
</mask>
<g mask="url(#mask1)">
<path d="M27.2613 13.751C23.9313 14.1214 23.6727 13.0345 23.3872 12.5105C23.1493 12.0736 22.9516 11.4165 24.3769 9.24273L25.2408 9.04108L28.3883 12.0817L27.2613 13.751Z" fill="white"/>
<path d="M24.3222 24.9475C23.3162 23.6273 22.5256 22.6174 23.3857 20.822C24.2319 19.0542 26.3894 18.8798 27.4341 18.6939L29.2745 19.2636L26.1464 27.2164L24.3222 24.9475Z" fill="white"/>
<path d="M13.3218 30.0463C13.6529 29.2158 14.3578 27.3784 15.912 26.8817C18.0069 26.2115 18.5801 27.3539 19.7869 28.5073C19.7869 28.5073 21.3905 29.769 21.4199 30.0489C21.4504 30.3282 13.9081 32.0309 13.9081 32.0309L13.3218 30.0463Z" fill="white"/>
<path d="M4.85151 25.3793C6.72619 24.4699 7.69862 24.5771 8.52689 25.4761C9.35586 26.3748 8.80794 27.742 8.61574 28.8948L8.42976 30.4882C8.42976 30.4882 3.54307 26.0051 3.52267 26.0051C3.50297 26.0051 4.85151 25.3793 4.85151 25.3793Z" fill="white"/>
<path d="M4.38048 15.9914C5.5617 16.6434 6.30701 16.9943 5.99658 18.5625C5.68581 20.1307 4.48661 20.6771 3.56361 21.3123H2.46362L2.79168 15.9914H4.38048Z" fill="white"/>
<path d="M11.1522 8.52416C11.1135 9.57948 11.2853 10.5104 10.1404 11.5826C8.82955 12.8093 7.59509 12.3472 6.66588 12.1744C6.66588 12.1744 5.19946 11.5839 5.36366 11.4344C5.52786 11.2845 8.42959 8.61121 8.42959 8.61121L11.1522 7.67352V8.52416Z" fill="white"/>
<path d="M20.5306 7.24473C19.4361 8.48792 18.6798 9.08044 17.2884 9.0391C15.897 8.99776 15.6602 8.25064 15.3518 7.06425C15.3518 7.06425 15.6501 5.50749 15.9239 5.49606C16.1977 5.4853 22.0409 6.06472 22.0409 6.06472L20.5306 7.24473Z" fill="white"/>
</g>
</g>
<path d="M33.55 6.98426C33.0574 6.98426 32.6566 6.54299 32.6566 6.00066C32.6566 5.45833 33.0574 5.01707 33.55 5.01707C33.67 5.01707 33.784 4.96488 33.8686 4.87174C33.9526 4.77926 34 4.65243 34 4.52163L33.9994 2.73676C33.9994 1.22801 32.884 0 31.5136 0H24.4864C23.116 0 22.0012 1.22801 22.0012 2.73676L22 4.5791C22 4.7099 22.0474 4.83607 22.132 4.92921C22.2166 5.02235 22.3306 5.07453 22.45 5.07453C22.9594 5.07453 23.344 5.4722 23.344 6.00066C23.344 6.54299 22.9432 6.98426 22.45 6.98426C22.2016 6.98426 22 7.20621 22 7.47969V9.2639C22 10.7727 23.1154 12 24.4858 12H31.5148C32.8852 12 34 10.7727 34 9.2639V7.47969C34 7.20621 33.7984 6.98426 33.55 6.98426Z" fill="#444174"/>
<path d="M28.0173 9.07457C29.2318 9.07457 30.0574 8.28356 30.0548 7.18093C30.0574 6.1369 29.3277 5.38583 28.3449 5.38583C27.8655 5.38583 27.4527 5.58558 27.2609 5.85458H27.229L27.3701 4.48828H29.7538V3.54545H26.4193L26.161 6.42188L27.1863 6.60565C27.3541 6.37926 27.6791 6.2381 28.0013 6.2381C28.55 6.24077 28.9442 6.63761 28.9442 7.21023C28.9442 7.77752 28.558 8.16903 28.0173 8.16903C27.5592 8.16903 27.189 7.88139 27.1624 7.45792H26.0438C26.0651 8.40075 26.8881 9.07457 28.0173 9.07457Z" fill="white"/>
<defs>
<clipPath id="clip0">
<path d="M0 19C0 15.2801 0 13.4202 0.40889 11.8942C1.5185 7.75307 4.75307 4.5185 8.89417 3.40889C10.4202 3 12.2801 3 16 3V3C19.7199 3 21.5798 3 23.1058 3.40889C27.2469 4.5185 30.4815 7.75307 31.5911 11.8942C32 13.4202 32 15.2801 32 19V19C32 22.7199 32 24.5798 31.5911 26.1058C30.4815 30.2469 27.2469 33.4815 23.1058 34.5911C21.5798 35 19.7199 35 16 35V35C12.2801 35 10.4202 35 8.89417 34.5911C4.75307 33.4815 1.5185 30.2469 0.40889 26.1058C0 24.5798 0 22.7199 0 19V19Z" fill="white"/>
</clipPath>
</defs>
</svg>
