<svg width="16" height="17" viewBox="0 0 16 17" fill="none" xmlns="http://www.w3.org/2000/svg">
<path fill-rule="evenodd" clip-rule="evenodd" d="M1.6 1.8C0.592777 2.55542 0 3.74097 0 5V14.3333C0 15.8061 1.19391 17 2.66667 17H13.3333C14.8061 17 16 15.8061 16 14.3333V5C16 3.74097 15.4072 2.55542 14.4 1.8L13.0667 0.8C12.3743 0.280711 11.5321 0 10.6667 0H5.33333C4.46785 0 3.62572 0.280712 2.93333 0.8L1.6 1.8ZM4 5C3.44772 5 3 5.44772 3 6C3 6.55228 3.44772 7 4 7H12C12.5523 7 13 6.55228 13 6C13 5.44772 12.5523 5 12 5H4Z" fill="#4D555D"/>
</svg>
