<svg width="18" height="12" viewBox="0 0 18 12" fill="none" xmlns="http://www.w3.org/2000/svg">
<path fill-rule="evenodd" clip-rule="evenodd" d="M5.29289 0.292892C5.68342 -0.0976314 6.31658 -0.0976308 6.70711 0.292894C7.09763 0.683419 7.09763 1.31658 6.70711 1.70711L3.41421 5L17 5C17.5523 5 18 5.44772 18 6C18 6.55229 17.5523 7 17 7L3.41422 7L3.47487 7.06065L6.70711 10.2929C7.09763 10.6834 7.09763 11.3166 6.70711 11.7071C6.31658 12.0976 5.68342 12.0976 5.29289 11.7071L2.06066 8.47487L0.799555 7.21376L0.427648 6.84185L0.327593 6.7418L0.301694 6.7159L0.295109 6.70931L0.293448 6.70765L0.293032 6.70724L0.292927 6.70713L1 6L0.292892 6.7071C0.105356 6.51956 0 6.26521 0 5.99999C0 5.73477 0.105357 5.48042 0.292894 5.29288L5.29289 0.292892Z" fill="#03090F"/>
</svg>
