<svg width="360" height="350" viewBox="0 0 360 350" fill="none" xmlns="http://www.w3.org/2000/svg">
<path fill-rule="evenodd" clip-rule="evenodd" d="M80.1907 5.1875C82.9059 5.1875 85.107 3.31269 85.107 1C85.107 0.655357 85.0582 0.320439 84.966 0H95.2485C95.1563 0.320439 95.1074 0.655357 95.1074 1C95.1074 3.31269 97.3085 5.1875 100.024 5.1875C102.739 5.1875 104.94 3.31269 104.94 1C104.94 0.655357 104.891 0.320439 104.799 0H115.081C114.989 0.320439 114.94 0.655357 114.94 1C114.94 3.31269 117.142 5.1875 119.857 5.1875C122.572 5.1875 124.773 3.31269 124.773 1C124.773 0.655357 124.724 0.320439 124.632 0H134.915C134.822 0.320439 134.773 0.655357 134.773 1C134.773 3.31269 136.975 5.1875 139.69 5.1875C142.405 5.1875 144.606 3.31269 144.606 1C144.606 0.655357 144.557 0.320439 144.465 0H154.748C154.655 0.320439 154.606 0.655357 154.606 1C154.606 3.31269 156.808 5.1875 159.523 5.1875C162.238 5.1875 164.439 3.31269 164.439 1C164.439 0.655357 164.39 0.320439 164.298 0H174.581C174.488 0.320439 174.439 0.655357 174.439 1C174.439 3.31269 176.641 5.1875 179.356 5.1875C182.071 5.1875 184.272 3.31269 184.272 1C184.272 0.655357 184.223 0.320439 184.131 0H194.414C194.321 0.320439 194.272 0.655357 194.272 1C194.272 3.31269 196.474 5.1875 199.189 5.1875C201.904 5.1875 204.105 3.31269 204.105 1C204.105 0.655357 204.056 0.320439 203.964 0H214.247C214.154 0.320439 214.105 0.655357 214.105 1C214.105 3.31269 216.307 5.1875 219.022 5.1875C221.737 5.1875 223.938 3.31269 223.938 1C223.938 0.655357 223.889 0.320439 223.797 0H234.08C233.987 0.320439 233.938 0.655357 233.938 1C233.938 3.31269 236.14 5.1875 238.855 5.1875C241.57 5.1875 243.771 3.31269 243.771 1C243.771 0.655357 243.722 0.320439 243.63 0H253.913C253.82 0.320439 253.771 0.655357 253.771 1C253.771 3.31269 255.973 5.1875 258.688 5.1875C261.403 5.1875 263.604 3.31269 263.604 1C263.604 0.655357 263.555 0.320439 263.463 0H273.746C273.653 0.320439 273.604 0.655357 273.604 1C273.604 3.31269 275.806 5.1875 278.521 5.1875C281.236 5.1875 283.437 3.31269 283.437 1C283.437 0.655357 283.388 0.320439 283.296 0H293.579C293.486 0.320439 293.438 0.655357 293.438 1C293.438 3.31269 295.639 5.1875 298.354 5.1875C301.069 5.1875 303.27 3.31269 303.27 1C303.27 0.655357 303.221 0.320439 303.129 0H313.412C313.319 0.320439 313.271 0.655357 313.271 1C313.271 3.31269 315.472 5.1875 318.187 5.1875C320.902 5.1875 323.103 3.31269 323.103 1C323.103 0.655357 323.054 0.320439 322.962 0H333.245C333.152 0.320439 333.104 0.655357 333.104 1C333.104 3.31269 335.305 5.1875 338.02 5.1875C340.735 5.1875 342.936 3.31269 342.936 1C342.936 0.655357 342.887 0.320439 342.795 0H353.078C352.985 0.320439 352.937 0.655357 352.937 1C352.937 3.31269 355.138 5.1875 357.853 5.1875C358.623 5.1875 359.351 5.03677 360 4.76807V350H0V5.12384C0.278836 5.16568 0.565773 5.1875 0.858693 5.1875C3.5739 5.1875 5.775 3.31269 5.775 1C5.775 0.655357 5.72612 0.320439 5.63394 0H15.9165C15.8243 0.320439 15.7754 0.655357 15.7754 1C15.7754 3.31269 17.9765 5.1875 20.6917 5.1875C23.4069 5.1875 25.608 3.31269 25.608 1C25.608 0.655357 25.5591 0.320439 25.4669 0H35.7495C35.6573 0.320439 35.6084 0.655357 35.6084 1C35.6084 3.31269 37.8095 5.1875 40.5247 5.1875C43.2399 5.1875 45.441 3.31269 45.441 1C45.441 0.655357 45.3921 0.320439 45.3 0H55.5825C55.4903 0.320439 55.4414 0.655357 55.4414 1C55.4414 3.31269 57.6425 5.1875 60.3577 5.1875C63.0729 5.1875 65.274 3.31269 65.274 1C65.274 0.655357 65.2251 0.320439 65.133 0H75.4155C75.3233 0.320439 75.2744 0.655357 75.2744 1C75.2744 3.31269 77.4755 5.1875 80.1907 5.1875Z" fill="url(#paint0_linear)"/>
<defs>
<linearGradient id="paint0_linear" x1="0" y1="0" x2="349.861" y2="359.857" gradientUnits="userSpaceOnUse">
<stop stop-color="#E254F7"/>
<stop offset="1" stop-color="#8444FE"/>
</linearGradient>
</defs>
</svg>
