<svg width="32" height="32" viewBox="0 0 32 32" fill="none" xmlns="http://www.w3.org/2000/svg">
<path d="M12.858 15.1492L24.6665 8.55011L24.6343 8.49498L19.1145 5.33191L7.21558 11.9814L12.858 15.1492Z" fill="#4E06ED"/>
<path d="M21.8589 11.5567L29.392 7.34699L29.3717 7.31182L25.8501 5.2937L18.2593 9.53586L21.8589 11.5567Z" fill="#FB108C"/>
<path d="M24.2286 11.1523L15.6543 6.3031L6.93774 11.1005L15.583 16.0489L24.2286 11.1523Z" fill="#E1F101"/>
<path d="M15.6304 18.1254L15.6319 27.5982L25.4751 22.097V12.5786L15.6304 18.1254Z" fill="#FB108C"/>
<path d="M15.6312 18.1037L15.633 27.5315L5.88843 22.0508V12.5693L15.6312 18.1037Z" fill="#4E06ED"/>
<path fill-rule="evenodd" clip-rule="evenodd" d="M26.1201 3.32092L29.3943 5.19689L29.4134 5.22997L22.4092 9.14403L26.0052 11.1627L26.0168 11.183L15.6118 16.9984L5.21606 11.1884L5.23543 11.1556L15.6417 5.3447L19.0622 7.26508L26.1201 3.32092ZM15.6378 15.5453L23.3759 11.2018L21.0559 9.90009L15.1111 13.2223L11.8169 11.3359L11.8362 11.3031L17.7079 8.02173L15.6418 6.86248L7.90927 11.2021L15.6378 15.5453Z" fill="#41656D"/>
<path d="M20.8537 18.6553C19.822 19.2355 19.6051 19.3755 19.062 20.1599V18.8588L23.0796 16.5993V15.2892L17.1944 18.5992V22.3941L19.062 21.3436C19.1816 20.9511 19.3985 20.82 20.0937 20.429C21.3098 19.7451 21.3534 19.9194 21.3534 20.7866C21.3534 21.6631 21.0495 21.8881 20.1048 22.4194C19.4966 22.7615 19.106 22.9362 19.0623 22.3914L16.9993 23.5519C16.9993 25.2052 18.0961 24.9591 20.1048 23.829C22.461 22.5038 23.4057 21.602 23.4057 19.4426C23.4054 17.8706 22.8301 17.5437 20.8537 18.6553Z" fill="#E1F101"/>
<path d="M7.98584 16.6831L11.8916 18.8874L9.1466 22.6891L11.4251 23.9747L14.1268 20.1853V18.6514L7.98584 15.1859V16.6831Z" fill="#E1F101"/>
<path fill-rule="evenodd" clip-rule="evenodd" d="M5.22542 11.2036L15.6212 17.0138L26.0265 11.1985L26.0545 11.2468V22.884L15.6688 28.6791L15.5923 28.6779L5.20605 22.8512V11.236L5.22542 11.2036ZM15.6304 27.2016L24.7139 22.1247V13.3617L15.6694 18.4511L15.5923 18.4517L6.58436 13.385L6.59819 22.1217L15.6304 27.2016Z" fill="#133747"/>
<path fill-rule="evenodd" clip-rule="evenodd" d="M27.366 4.90751L26.705 4.52754C25.9849 4.11361 25.3515 4.30553 24.6564 4.68936C23.9612 5.0732 23.6087 5.42634 24.3288 5.84028L24.9898 6.22024C25.7099 6.63417 26.3528 6.44792 27.0477 6.06378C27.7425 5.67965 28.0864 5.32114 27.366 4.90751ZM26.5051 5.75175C26.149 5.94843 25.9756 5.99164 25.6265 5.79079L25.0998 5.48801C24.7506 5.28745 24.8428 5.19775 25.199 5.00106C25.5552 4.80437 25.7193 4.7558 26.0654 4.95487L26.5921 5.25765C26.9412 5.45821 26.8613 5.55506 26.5051 5.75175ZM23.1308 5.55686L23.6422 5.8507L22.5051 6.4789L24.3321 7.52879L23.6474 7.90696L21.3093 6.56324L23.1308 5.55686ZM17.0839 8.89725L17.8227 10.2249L17.7987 10.238L16.2587 9.35291L15.6081 9.71231L17.9462 11.056L18.8774 10.5417L18.1076 9.23102L18.1316 9.21791L19.6715 10.103L20.3221 9.7436L17.984 8.39987L17.0839 8.89725ZM15.57 11.8207L16.046 11.5579C16.2412 11.4503 16.2694 11.3853 16.0887 11.2813C15.8954 11.1702 15.7799 11.1848 15.5847 11.2927L15.1087 11.5555L15.57 11.8207ZM16.767 10.8996C16.2434 10.5986 15.783 10.6349 15.259 10.9243L14.6222 11.2763L14.2046 11.0361L15.3927 10.3798L14.9065 10.1003L13.0337 11.135L15.3718 12.4787L16.6933 11.7486C17.2102 11.4631 17.2907 11.2006 16.767 10.8996ZM20.9731 7.74009L20.0939 7.23467L20.7786 6.85679L23.1167 8.20051L22.432 8.57869L21.5156 8.05181L20.6219 8.54561L21.5383 9.07249L20.8536 9.45066L18.5155 8.10694L19.2002 7.72877L20.0794 8.23389L20.9731 7.74009Z" fill="#E1F101"/>
</svg>
