<svg width="93" height="98" viewBox="0 0 93 98" fill="none" xmlns="http://www.w3.org/2000/svg">
<g opacity="0.4" filter="url(#filter0_f)">
<path fill-rule="evenodd" clip-rule="evenodd" d="M77.2918 69.4313L74.8255 38.6938L41.4098 50.4449L50.4831 87.5948L77.2918 69.4313ZM33.9599 73.5158L50.4823 87.595L41.409 50.4451L25.6085 46.9529L33.9599 73.5158Z" fill="#82642A"/>
</g>
<g filter="url(#filter1_i)">
<path d="M74.8255 37.072L77.2918 67.8095L50.4831 85.9729L41.4098 48.8231L74.8255 37.072Z" fill="url(#paint0_linear)"/>
</g>
<path d="M62.2529 68.8298L61.0799 68.4585C61.0498 68.4484 61.0297 68.4083 61.0297 68.3782L62.2027 68.7495C62.2027 68.7796 62.2228 68.8197 62.2529 68.8298Z" fill="#858585"/>
<path d="M62.2024 68.7497L61.0294 68.3784C61.0294 68.3784 61.0294 68.3784 61.0294 68.3684L62.2024 68.7497Z" fill="#8A8A8A"/>
<path d="M62.2029 68.7388L61.0298 68.3675C61.0298 68.3675 61.0298 68.3675 61.0298 68.3574L62.2029 68.7388Z" fill="#8F8F8F"/>
<path d="M62.2024 68.7397L61.0294 68.3684L62.2024 68.7397Z" fill="#949494"/>
<g opacity="0.3">
<path d="M63.5159 61.9551L62.3429 61.5838C62.383 61.5436 62.4231 61.5135 62.4732 61.4834L63.6462 61.8547C63.5961 61.8848 63.556 61.9149 63.5159 61.9551Z" fill="#E0E0E0"/>
<path d="M63.6362 61.8551L62.4632 61.4838C62.4832 61.4637 62.5133 61.4537 62.5333 61.4436C62.5534 61.4336 62.5734 61.4236 62.6035 61.4236L63.7765 61.7949C63.7565 61.8049 63.7364 61.8049 63.7063 61.8149C63.6863 61.825 63.6662 61.845 63.6362 61.8551Z" fill="#E0E0E0"/>
<path d="M63.7765 61.7949L62.6035 61.4236C62.6436 61.4135 62.6837 61.4033 62.7339 61.4133L63.9069 61.7846C63.8668 61.7746 63.8267 61.7848 63.7765 61.7949Z" fill="#E0E0E0"/>
<path d="M63.9069 61.7746L62.7339 61.4033C62.764 61.4033 62.784 61.4134 62.8041 61.4134L63.9771 61.7847C63.9571 61.7847 63.927 61.7746 63.9069 61.7746Z" fill="#E0E0E0"/>
<path d="M63.9771 61.7949L62.8041 61.4236C62.8141 61.4236 62.8141 61.4236 62.8241 61.4236L63.9971 61.7949C63.9871 61.7949 63.9871 61.7949 63.9771 61.7949Z" fill="#E0E0E0"/>
<path d="M63.0547 62.3168L61.8817 61.9455L62.3429 61.5842L63.5159 61.9555L63.0547 62.3168Z" fill="#E0E0E0"/>
<path d="M62.2126 68.7391L61.0396 68.3678L61.6411 65.8892L62.8041 66.2605L62.2126 68.7391Z" fill="#E0E0E0"/>
<path d="M62.8041 66.2605L61.6311 65.8891C61.6712 65.7285 61.7013 65.578 61.7213 65.4275L62.8943 65.7988C62.8843 65.9493 62.8442 66.11 62.8041 66.2605Z" fill="#E0E0E0"/>
<path d="M62.9044 65.7989L61.7314 65.4276C61.7514 65.2269 61.7615 65.0262 61.7314 64.8255L62.9044 65.1968C62.9245 65.4076 62.9245 65.6083 62.9044 65.7989Z" fill="#E0E0E0"/>
<path d="M62.9044 65.1972L61.7313 64.8259L61.581 62.9794L62.754 63.3507L62.9044 65.1972Z" fill="#E0E0E0"/>
<path d="M62.7539 63.35L61.5809 62.9787C61.5608 62.8583 61.5608 62.7278 61.5809 62.5974L62.7539 62.9687C62.7339 63.0992 62.7339 63.2296 62.7539 63.35Z" fill="#E0E0E0"/>
<path d="M62.7539 62.9687L61.5809 62.5974C61.5909 62.5372 61.601 62.467 61.621 62.4068L62.794 62.7781C62.774 62.8484 62.7639 62.9085 62.7539 62.9687Z" fill="#E0E0E0"/>
<path d="M62.7941 62.788L61.6211 62.4167C61.6311 62.3665 61.6511 62.3264 61.6612 62.2862L62.8342 62.6575C62.8141 62.6977 62.8041 62.7378 62.7941 62.788Z" fill="#E0E0E0"/>
<path d="M62.8341 62.6478L61.6611 62.2765C61.6711 62.2363 61.6911 62.2062 61.7112 62.1661L62.8842 62.5374C62.8641 62.5775 62.8441 62.6177 62.8341 62.6478Z" fill="#E0E0E0"/>
<path d="M62.8842 62.5475L61.7112 62.1762C61.7312 62.1461 61.7513 62.116 61.7713 62.0759L62.9443 62.4472C62.9243 62.4773 62.9042 62.5074 62.8842 62.5475Z" fill="#E0E0E0"/>
<path d="M62.9444 62.4468L61.7714 62.0755C61.7915 62.0454 61.8216 62.0153 61.8516 61.9852L63.0247 62.3565C62.9946 62.3866 62.9645 62.4167 62.9444 62.4468Z" fill="#E0E0E0"/>
<path d="M63.0247 62.3565L61.8516 61.9852C61.8617 61.9751 61.8716 61.9653 61.8816 61.9553L63.0547 62.3266C63.0446 62.3266 63.0347 62.3464 63.0247 62.3565Z" fill="#E0E0E0"/>
</g>
<path d="M62.1925 51.6482C65.2604 51.6181 67.8971 53.8961 68.5087 57.6191C69.2105 61.9041 66.8444 66.7009 63.1449 68.4771C62.8642 68.6075 62.5735 68.7279 62.2827 68.8283C62.2326 68.8484 62.1825 68.7781 62.2025 68.738L62.8041 66.2693C62.9043 65.9081 62.9444 65.5669 62.8943 65.2056L62.7439 63.3592C62.6938 62.9979 62.784 62.5764 63.0447 62.3356L63.5059 61.9743C63.576 61.9141 63.6362 61.864 63.7064 61.8338C63.8969 61.7536 64.0773 61.8037 64.2077 61.9743C64.348 62.1349 64.729 62.6065 64.8794 62.7972C64.9897 62.9076 64.9997 63.0983 64.9395 63.2187C64.8493 63.4395 64.7591 63.6402 64.6889 63.8208C64.5485 64.1519 64.4182 64.443 64.2778 64.7942C64.1275 65.1555 64.0272 65.6371 64.4583 65.8278C64.5786 65.888 64.6789 65.888 64.7791 65.8378C65.0097 65.7375 65.1701 65.3963 65.2904 65.1655C65.491 64.7541 65.7917 64.0115 65.9822 63.5498C66.1527 63.1484 66.2429 62.8875 66.1928 62.4962C66.1627 62.3456 66.1326 62.2051 66.0424 62.0546C65.9622 61.9141 65.6614 61.4625 65.2804 60.8805C64.8393 60.2182 64.2979 59.3953 63.8367 58.6628C63.0848 57.4586 62.5634 56.1339 62.4131 54.5685L62.1223 51.7586C62.1223 51.7085 62.1424 51.6683 62.1925 51.6482Z" fill="white"/>
<g opacity="0.2">
<path d="M62.1927 51.6491L61.0197 51.2778C61.14 51.2778 61.2604 51.2778 61.3807 51.2878L62.5537 51.6591C62.4334 51.6491 62.3131 51.6491 62.1927 51.6491Z" fill="white"/>
<path d="M62.5537 51.6591L61.3807 51.2878C61.8017 51.3079 62.2128 51.3782 62.6138 51.4785L63.7868 51.8498C63.3858 51.7495 62.9748 51.6792 62.5537 51.6591Z" fill="white"/>
<path d="M63.7868 51.8498L62.6138 51.4785C62.704 51.4986 62.7843 51.5286 62.8645 51.5487L64.0375 51.92C63.9573 51.8999 63.877 51.88 63.7868 51.8498Z" fill="white"/>
<path d="M65.9826 63.541L64.8096 63.1698C64.8397 63.1095 64.8597 63.0493 64.8898 62.9891L66.0628 63.3604C66.0327 63.4206 66.0026 63.4808 65.9826 63.541Z" fill="white"/>
<path d="M66.0527 63.3601L64.8797 62.9888C64.9198 62.8885 64.9499 62.7982 64.98 62.7079L66.153 63.0791C66.1229 63.1695 66.0928 63.2598 66.0527 63.3601Z" fill="white"/>
<path d="M66.153 63.0795L64.98 62.7082C65 62.638 65.0101 62.5677 65.0201 62.4975L66.1931 62.8688C66.1831 62.939 66.173 63.0093 66.153 63.0795Z" fill="white"/>
<path d="M66.1931 62.8786L65.0201 62.5073C65.0402 62.3869 65.0301 62.2665 65.0201 62.126L66.1931 62.4973C66.2031 62.6278 66.2132 62.7582 66.1931 62.8786Z" fill="white"/>
<path d="M64.5289 65.8393L63.3559 65.468C63.3659 65.468 63.3659 65.468 63.3759 65.4781L64.5489 65.8494C64.5389 65.8393 64.5389 65.8393 64.5289 65.8393Z" fill="white"/>
<path d="M64.5489 65.8494L63.3759 65.4781C63.406 65.4881 63.426 65.4882 63.4561 65.4882L64.6291 65.8595C64.599 65.8595 64.579 65.8494 64.5489 65.8494Z" fill="white"/>
<path d="M64.6291 65.8595L63.4561 65.4882C63.4962 65.4882 63.5263 65.4882 63.5664 65.4781L64.7394 65.8495C64.6993 65.8595 64.6592 65.8595 64.6291 65.8595Z" fill="white"/>
<path d="M64.7294 65.8495L63.5564 65.4782C63.5764 65.4782 63.5865 65.4681 63.6065 65.4581C63.6266 65.4481 63.6366 65.438 63.6566 65.428L64.8297 65.7993C64.8096 65.8093 64.7996 65.8194 64.7795 65.8294C64.7695 65.8294 64.7495 65.8394 64.7294 65.8495Z" fill="white"/>
<path d="M64.8397 65.7993L63.6667 65.428C63.7068 65.3979 63.7569 65.3678 63.797 65.3276L64.97 65.6989C64.9199 65.7391 64.8798 65.7692 64.8397 65.7993Z" fill="white"/>
<path d="M64.96 65.6987L63.787 65.3274C63.8271 65.2873 63.8572 65.2472 63.8873 65.207L65.0603 65.5783C65.0302 65.6185 65.0001 65.6586 64.96 65.6987Z" fill="white"/>
<path d="M65.0603 65.5686L63.8873 65.1973C63.9374 65.127 63.9775 65.0568 64.0176 64.9865L65.1906 65.3578C65.1505 65.4281 65.1104 65.5084 65.0603 65.5686Z" fill="white"/>
<path d="M65.1906 65.3578L64.0176 64.9865C64.0577 64.9163 64.0877 64.8459 64.1178 64.7857C64.3183 64.3743 64.6191 63.6314 64.8096 63.1698L65.9826 63.541C65.7921 64.0127 65.4913 64.7456 65.2908 65.157C65.2607 65.2172 65.2307 65.2876 65.1906 65.3578Z" fill="white"/>
<path d="M66.1931 62.4875L65.0201 62.1162C64.99 61.9656 64.9599 61.8252 64.8697 61.6746C64.7895 61.5341 64.4887 61.0826 64.1077 60.5005C63.6666 59.8382 63.1252 59.0153 62.664 58.2828C61.9121 57.0786 61.3907 55.7539 61.2404 54.1885L62.4134 54.5598C62.5638 56.1252 63.0851 57.4599 63.837 58.6541C64.2982 59.3866 64.8496 60.2095 65.2807 60.8718C65.6617 61.4539 65.9625 61.9054 66.0427 62.0459C66.1329 62.1965 66.163 62.347 66.1931 62.4875Z" fill="white"/>
<path d="M62.4135 54.5592L61.2404 54.1779L60.9597 51.3681L62.1227 51.7394L62.4135 54.5592Z" fill="white"/>
<path d="M62.1227 51.7394L60.9498 51.3678C60.9498 51.3578 60.9498 51.3578 60.9498 51.3478L62.1228 51.7191C62.1228 51.7291 62.1227 51.7394 62.1227 51.7394Z" fill="white"/>
<path d="M62.1228 51.7291L60.9498 51.3578V51.3478L62.1228 51.7291C62.1228 51.7191 62.1228 51.7191 62.1228 51.7291Z" fill="white"/>
<path d="M62.1228 51.7191L60.9498 51.3478V51.3376L62.1228 51.7191C62.1328 51.709 62.1228 51.709 62.1228 51.7191Z" fill="white"/>
<path d="M62.1328 51.7088L60.9598 51.3376V51.3275L62.1328 51.7088Z" fill="white"/>
<path d="M62.1328 51.6987L60.9598 51.3275C60.9598 51.3275 60.9598 51.3174 60.9698 51.3174L62.1328 51.6987Z" fill="white"/>
<path d="M62.1428 51.6886L60.9698 51.3174L60.9798 51.3073L62.1528 51.6786C62.1428 51.6786 62.1428 51.6886 62.1428 51.6886Z" fill="white"/>
<path d="M62.1528 51.6786L60.9798 51.3073C60.9898 51.2972 60.9899 51.2975 60.9999 51.2875L62.173 51.6588C62.1629 51.6688 62.1528 51.6685 62.1528 51.6786Z" fill="white"/>
<path d="M62.173 51.6588L60.9999 51.2875C61.01 51.2875 61.0099 51.2773 61.0199 51.2773L62.193 51.6486C62.1829 51.6486 62.183 51.6588 62.173 51.6588Z" fill="white"/>
</g>
<path d="M60.9393 51.8891L59.7663 51.5178C59.7663 51.5178 59.7663 51.5178 59.7763 51.5178L60.9393 51.8891C60.9493 51.8891 60.9393 51.8891 60.9393 51.8891Z" fill="#A8A8A8"/>
<path d="M60.9496 51.8891L59.7766 51.5178H59.7866L60.9596 51.8891C60.9596 51.8791 60.9496 51.8791 60.9496 51.8891Z" fill="#A3A3A3"/>
<path d="M60.9595 51.8781L59.7864 51.5068H59.7965L60.9595 51.8781C60.9695 51.8781 60.9595 51.8781 60.9595 51.8781Z" fill="#9E9E9E"/>
<path d="M60.969 51.8879L59.796 51.5166L60.969 51.8879Z" fill="#999999"/>
<g opacity="0.2">
<path d="M59.4356 57.2572L58.2626 56.8859C58.2726 56.8758 58.2926 56.8658 58.3027 56.8557L59.4757 57.2271C59.4656 57.2371 59.4456 57.2471 59.4356 57.2572Z" fill="white"/>
<path d="M59.4757 57.2271L58.3027 56.8557C58.433 56.7755 58.5533 56.6752 58.6536 56.5648L59.8266 56.9361C59.7263 57.0465 59.606 57.1468 59.4757 57.2271Z" fill="white"/>
<path d="M59.8266 56.9361L58.6536 56.5648C58.7238 56.4946 58.7839 56.4246 58.834 56.3443L60.0071 56.7156C59.9569 56.7959 59.8968 56.8659 59.8266 56.9361Z" fill="white"/>
<path d="M60.0171 56.7154L58.8441 56.3441C58.8942 56.2739 58.9343 56.2037 58.9744 56.1234L60.1474 56.4947C60.1073 56.575 60.0572 56.6452 60.0171 56.7154Z" fill="white"/>
<path d="M60.1474 56.4947L58.9744 56.1234C59.0145 56.0531 59.0445 55.9727 59.0746 55.9024L60.2476 56.2737C60.2175 56.354 60.1875 56.4244 60.1474 56.4947Z" fill="white"/>
<path d="M60.2476 56.2737L59.0746 55.9024C59.1047 55.8221 59.1348 55.7419 59.1548 55.6617L60.3278 56.033C60.3078 56.1132 60.2877 56.1934 60.2476 56.2737Z" fill="white"/>
<path d="M60.3278 56.033L59.1548 55.6617C59.1849 55.5714 59.195 55.4711 59.215 55.3707L60.388 55.742C60.378 55.8424 60.3579 55.9326 60.3278 56.033Z" fill="white"/>
<path d="M60.388 55.742L59.215 55.3707C59.2451 55.1199 59.2351 54.869 59.1549 54.6282C59.0145 54.1866 58.7137 53.8755 58.3528 53.7651L59.5258 54.1364C59.8867 54.2569 60.1875 54.5579 60.3279 54.9994C60.4081 55.2403 60.4181 55.4912 60.388 55.742Z" fill="white"/>
<path d="M58.443 57.368L57.27 56.9967C57.2901 57.0068 57.3001 57.0068 57.3201 57.0068L58.4932 57.378C58.4731 57.378 58.4531 57.378 58.443 57.368Z" fill="white"/>
<path d="M58.4932 57.3878L57.3201 57.0165C57.4004 57.0366 57.4806 57.0466 57.5608 57.0566L58.7338 57.4279C58.6536 57.4179 58.5633 57.4079 58.4932 57.3878Z" fill="white"/>
<path d="M58.7338 57.4182L57.5608 57.0469C57.6911 57.0569 57.8315 57.0369 57.9718 56.9967L59.1449 57.368C59.0045 57.4081 58.8641 57.4282 58.7338 57.4182Z" fill="white"/>
<path d="M59.1448 57.378L57.9718 57.0067C58.042 56.9866 58.1022 56.9665 58.1723 56.9364C58.2024 56.9264 58.2325 56.9063 58.2726 56.8862L59.4456 57.2575C59.4155 57.2776 59.3854 57.2876 59.3453 57.3077C59.2752 57.3278 59.205 57.3579 59.1448 57.378Z" fill="white"/>
</g>
<g opacity="0.2">
<path d="M55.2749 59.8266L54.1019 59.4553C54.112 59.4553 54.112 59.4553 54.122 59.4553L55.285 59.8266H55.2749Z" fill="white"/>
<path d="M55.285 59.8266L54.1122 59.4553C54.1423 59.4654 54.1723 59.4654 54.2024 59.4654L55.3754 59.8367C55.3453 59.8367 55.315 59.8367 55.285 59.8266Z" fill="white"/>
<path d="M55.3752 59.8468L54.2022 59.4755C54.2122 59.4755 54.2323 59.4755 54.2423 59.4755C54.3225 59.4755 55.8163 59.4454 56.468 59.4755C56.478 59.4755 56.488 59.4755 56.488 59.4755L57.661 59.8468C57.651 59.8468 57.641 59.8468 57.641 59.8468C56.9893 59.8167 55.4955 59.8468 55.4153 59.8468C55.4053 59.8468 55.3952 59.8468 55.3752 59.8468Z" fill="white"/>
<path d="M57.6711 59.8469L56.4981 59.4756C56.5282 59.4756 56.5583 59.4756 56.5783 59.4756L57.7513 59.8469C57.7212 59.8469 57.6911 59.8469 57.6711 59.8469Z" fill="white"/>
<path d="M57.7513 59.8469L56.5783 59.4756C56.7788 59.4856 56.9692 59.4957 57.1497 59.4957C57.3001 59.4957 57.4505 59.5057 57.5808 59.5057L58.7538 59.877C58.6134 59.867 58.4731 59.867 58.3227 59.867C58.1422 59.867 57.9518 59.8569 57.7513 59.8469Z" fill="white"/>
<path d="M58.7538 59.8869L57.5808 59.5156C57.8214 59.5257 58.0319 59.5457 58.2325 59.6059L59.4055 59.9772C59.205 59.917 58.9944 59.897 58.7538 59.8869Z" fill="white"/>
<path d="M59.4055 59.967L58.2325 59.5957C58.2625 59.6058 58.2826 59.6058 58.3127 59.6158L59.4857 59.9871C59.4556 59.9871 59.4355 59.9771 59.4055 59.967Z" fill="white"/>
</g>
<path d="M61.2001 62.3449C61.3103 63.0273 61.561 65.0444 61.571 65.1548C61.6111 65.4859 61.5911 65.9776 61.5209 66.3289L60.9995 69.0484C61.0096 69.1086 60.9594 69.1287 60.9093 69.1487C57.6911 69.5602 54.8237 67.3825 54.0718 63.6595C53.1695 59.1939 55.6358 54.1162 59.5959 52.35C59.616 52.34 59.626 52.34 59.6461 52.3299C60.0872 52.1292 60.5083 51.9787 60.9394 51.8783C60.9695 51.8683 60.9995 51.8884 60.9995 51.9185C61.0397 52.3199 61.1098 53.203 61.18 54.0359C61.2402 54.7885 61.3003 55.491 61.3204 55.7418C61.3805 56.5447 61.0697 56.926 60.7389 57.3174C60.6988 57.3675 60.6587 57.4077 60.6286 57.4578L60.5985 57.498C60.2677 57.8793 60.007 58.2004 59.606 58.3811C59.3854 58.4814 59.1247 58.5316 58.7939 58.5416C58.1121 58.5517 57.5808 58.5517 57.1196 58.5517C56.5682 58.5517 56.117 58.5517 55.6458 58.5717C55.5756 58.5717 55.4954 58.5918 55.4253 58.6219C55.2147 58.7223 55.0142 58.943 54.9841 59.214C54.944 59.5853 55.1145 59.8562 55.4253 59.8462C55.5055 59.8462 56.9993 59.8161 57.651 59.8462C57.8916 59.8562 58.1222 59.8663 58.3327 59.8763C59.1949 59.8964 59.7764 59.9164 60.2576 60.5788C60.5283 60.9802 61.0998 61.8833 61.2001 62.3449ZM58.5433 54.2667C57.8114 54.6882 57.4003 55.7017 57.6409 56.5246C57.8816 57.3073 58.6235 57.6284 59.3253 57.3073C59.3553 57.2973 59.3854 57.2772 59.4255 57.2571C60.1574 56.8357 60.5684 55.8221 60.3278 54.9993C60.0972 54.2366 59.3754 53.8854 58.6736 54.1964C58.6335 54.2165 58.5934 54.2366 58.5433 54.2667Z" fill="white"/>
<g opacity="0.2">
<path d="M58.393 68.9289L57.22 68.5576C55.1146 67.8852 53.4504 65.9986 52.909 63.2892C52.6984 62.2455 52.6684 61.1718 52.7987 60.1181L53.9717 60.4894C53.8414 61.5431 53.8715 62.6168 54.082 63.6605C54.6234 66.3699 56.2876 68.2666 58.393 68.9289Z" fill="white"/>
<path d="M53.9717 60.4991L52.7987 60.1278C52.8589 59.6261 52.9591 59.1243 53.0894 58.6326L54.2624 59.0039C54.1321 59.4956 54.0319 59.9974 53.9717 60.4991Z" fill="white"/>
<path d="M54.2624 59.0039L53.0894 58.6326C53.1997 58.2111 53.3401 57.7898 53.5105 57.3884L54.6836 57.7596C54.5231 58.161 54.3827 58.5724 54.2624 59.0039Z" fill="white"/>
<path d="M54.6835 57.7496L53.5105 57.3783C53.6709 56.9869 53.8514 56.6056 54.0419 56.2343L55.2149 56.6056C55.0143 56.9769 54.8439 57.3582 54.6835 57.7496Z" fill="white"/>
<path d="M55.2149 56.6056L54.0419 56.2343C54.2524 55.853 54.483 55.4715 54.7337 55.1203L55.9067 55.4916C55.656 55.8428 55.4254 56.2142 55.2149 56.6056Z" fill="white"/>
<path d="M55.9067 55.4916L54.7337 55.1203C55.0244 54.7089 55.3352 54.3277 55.6661 53.9764L56.8391 54.3477C56.5083 54.6989 56.1874 55.0802 55.9067 55.4916Z" fill="white"/>
<path d="M56.8391 54.3477L55.6661 53.9764C56.2075 53.4044 56.819 52.9029 57.4807 52.4914L58.6537 52.8627C57.992 53.2641 57.3905 53.7657 56.8391 54.3477Z" fill="white"/>
<path d="M58.6537 52.8627L57.4807 52.4914C57.7915 52.3008 58.1022 52.1302 58.4331 51.9897C58.4531 51.9796 58.4632 51.9796 58.4832 51.9696C58.8341 51.809 59.175 51.6786 59.5159 51.5883L60.6889 51.9596C60.348 52.0599 60.0071 52.1904 59.6562 52.3409C59.6362 52.3509 59.6261 52.3509 59.6061 52.361C59.2752 52.5015 58.9544 52.672 58.6537 52.8627Z" fill="white"/>
<path d="M60.6889 51.9493L59.5159 51.578C59.5961 51.558 59.6864 51.5379 59.7666 51.5178L60.9396 51.8891C60.8594 51.9092 60.7691 51.9293 60.6889 51.9493Z" fill="white"/>
</g>
<path d="M61.3303 50.3327L59.3452 47.9243C59.265 47.8039 59.255 47.6433 59.3753 47.4928L60.4179 46.2585C60.4581 46.2183 60.4982 46.1882 60.5383 46.1782C60.6185 46.1381 60.7087 46.1481 60.7789 46.2284L62.764 48.6368C62.8442 48.7572 62.8341 48.9579 62.7339 49.0683L61.6912 50.3026C61.6511 50.3428 61.611 50.3628 61.5809 50.3829C61.4907 50.423 61.4105 50.413 61.3303 50.3327Z" fill="white"/>
<g opacity="0.2">
<path d="M60.4276 46.2695L59.2546 45.8982C59.2747 45.8782 59.3048 45.8481 59.3348 45.838L60.5078 46.2093C60.4778 46.2294 60.4477 46.2495 60.4276 46.2695Z" fill="white"/>
<path d="M60.4978 46.2095L59.3248 45.8382C59.3348 45.8282 59.3548 45.8181 59.3649 45.8181C59.3749 45.8081 59.3849 45.8081 59.405 45.8081L60.578 46.1794C60.5679 46.1794 60.5579 46.1894 60.5379 46.1894C60.5278 46.1894 60.5178 46.1995 60.4978 46.2095Z" fill="white"/>
<path d="M60.578 46.1692L59.405 45.7979C59.4251 45.7878 59.4451 45.7878 59.4752 45.7878L60.6482 46.1591C60.6181 46.1692 60.5981 46.1692 60.578 46.1692Z" fill="white"/>
<path d="M60.6482 46.1693L59.4751 45.798C59.4852 45.798 59.5052 45.798 59.5152 45.808L60.6883 46.1793C60.6682 46.1693 60.6582 46.1693 60.6482 46.1693Z" fill="white"/>
<path d="M60.6783 46.1693L59.5053 45.798H59.5153L60.6783 46.1693C60.6883 46.1693 60.6883 46.1693 60.6783 46.1693Z" fill="white"/>
<path d="M61.4303 50.4033L60.2573 50.032C60.2273 50.0219 60.1972 50.0019 60.1671 49.9718L61.3401 50.3431C61.3602 50.3732 61.3902 50.3932 61.4303 50.4033Z" fill="white"/>
<path d="M61.33 50.3328L60.167 49.9615L58.1819 47.5531L59.3549 47.9344L61.33 50.3328Z" fill="white"/>
<path d="M59.375 47.5032L58.212 47.1319L59.2547 45.8976L60.4277 46.2689L59.375 47.5032Z" fill="white"/>
<path d="M59.3549 47.9344L58.1819 47.5632C58.1317 47.493 58.1117 47.4127 58.1217 47.3324L59.2947 47.7037C59.2847 47.784 59.3048 47.8642 59.3549 47.9344Z" fill="white"/>
<path d="M59.2947 47.6936L58.1217 47.3223C58.1217 47.3022 58.1317 47.2922 58.1317 47.2721L59.3048 47.6434C59.3048 47.6635 59.2947 47.6836 59.2947 47.6936Z" fill="white"/>
<path d="M59.3048 47.6434L58.1317 47.2721C58.1317 47.2621 58.1418 47.2421 58.1418 47.2321L59.3148 47.6034C59.3148 47.6235 59.3048 47.6334 59.3048 47.6434Z" fill="white"/>
<path d="M59.3148 47.6034L58.1418 47.2321C58.1518 47.2221 58.1518 47.2021 58.1618 47.1921L59.3348 47.5633C59.3348 47.5834 59.3248 47.5934 59.3148 47.6034Z" fill="white"/>
<path d="M59.3348 47.5633L58.1618 47.1921C58.1718 47.172 58.1819 47.1619 58.1919 47.1419L59.3649 47.5132C59.3549 47.5332 59.3448 47.5533 59.3348 47.5633Z" fill="white"/>
<path d="M59.3649 47.5231L58.1919 47.1518C58.1919 47.1418 58.2019 47.1418 58.2019 47.1317L59.375 47.5032C59.375 47.5133 59.3649 47.5131 59.3649 47.5231Z" fill="white"/>
</g>
<g filter="url(#filter2_i)">
<path d="M50.482 85.9729L33.9597 71.8937L25.6083 45.3308L41.4088 48.823L50.482 85.9729Z" fill="url(#paint1_linear)"/>
</g>
<g opacity="0.2" filter="url(#filter3_i)">
<path d="M39.1356 59.7125C39.4354 60.6917 39.5013 61.3513 39.3994 61.9633C39.3934 62.0177 39.3814 62.0653 39.3694 62.1061C39.2975 62.4529 39.1716 62.793 39.0037 63.167C38.8418 63.5274 38.9138 63.8946 39.0817 64.4386L39.0936 64.4658L39.1296 64.5814C39.2136 64.8806 39.2435 65.1526 39.2195 65.377C39.1836 65.7102 39.0457 65.9278 38.8119 65.9482C38.7999 65.9482 38.7879 65.9482 38.7759 65.9482C38.5481 65.9346 38.2963 65.7374 38.0744 65.4382C37.9066 65.207 37.7627 64.9214 37.6668 64.6086L37.5888 64.357L37.367 63.6362C37.1452 62.9086 36.9773 62.3101 37.2291 61.8137C37.4689 61.3377 37.7867 61.1609 37.8166 60.6781C37.8226 60.6169 37.8226 60.5421 37.8166 60.4673C37.8047 60.3109 37.7687 60.1205 37.6967 59.8893C37.5469 59.4132 37.319 59.0324 37.0792 58.8012C37.0612 58.7808 37.0373 58.7672 37.0193 58.7468C36.8814 58.6312 36.7435 58.57 36.6176 58.5632C36.5996 58.5632 36.5876 58.5632 36.5696 58.5632C36.2219 58.5836 36.066 58.8896 36.0121 59.284C36.0061 59.3112 36.0061 59.3316 36.0061 59.3588C35.9641 59.6649 35.8202 59.8621 35.5984 59.8757C35.5864 59.8757 35.5684 59.8757 35.5504 59.8757C35.3106 59.8621 35.0288 59.6377 34.801 59.2976C34.6511 59.08 34.5252 58.8148 34.4353 58.5292C34.3454 58.2368 34.3094 57.958 34.3274 57.7336C34.3334 57.6928 34.3334 57.652 34.3394 57.6112C34.3454 57.5772 34.3514 57.55 34.3573 57.5228C34.4713 56.7476 34.831 56.0063 35.7842 55.9587C35.8382 55.9587 35.8921 55.9587 35.9461 55.9587C36.2339 55.9791 36.5336 56.0743 36.8274 56.2511C37.0133 56.36 37.1931 56.496 37.373 56.6592C38.0804 57.3052 38.7279 58.366 39.1356 59.7125Z" fill="#CF770B"/>
</g>
<g opacity="0.2" filter="url(#filter4_i)">
<path d="M39.0635 66.6072C39.4951 66.6344 40.0227 67.2668 40.2685 68.0692C40.5203 68.8988 40.3704 69.5857 39.9328 69.6061C39.9148 69.6061 39.9028 69.6061 39.8848 69.6061C39.4532 69.5789 38.9256 68.9464 38.6798 68.144C38.428 67.3144 38.5778 66.6276 39.0155 66.6072C39.0335 66.6072 39.0515 66.6072 39.0635 66.6072Z" fill="#CF770B"/>
</g>
<g filter="url(#filter5_d)">
<path d="M41.409 48.8243L25.6085 45.3321L52.6278 37.4746L74.8247 37.0732L41.409 48.8243Z" fill="white"/>
</g>
<g filter="url(#filter6_f)">
<path d="M6.16352 56.2976L45.0166 35.199L84.0363 24.9057L86.8018 27.6714L54.3875 42.112L9.99079 59.4705L6.16352 56.2976Z" fill="url(#paint2_radial)"/>
</g>
<g filter="url(#filter7_f)">
<path d="M43.7613 40.9468L63.078 57.1823L73.3083 50.5316L61.482 36.5174L43.7613 40.9468Z" fill="url(#paint3_linear)"/>
</g>
<g filter="url(#filter8_f)">
<path d="M39.1791 43.2433L56.1481 56.3369L53.7724 49.7418L46.4262 43.2433L39.1791 43.2433Z" fill="url(#paint4_linear)"/>
</g>
<g filter="url(#filter9_f)">
<path d="M57.765 35.2549L70.0548 45.1451L71.2646 45.1451L65.0121 35.2549L57.765 35.2549Z" fill="url(#paint5_linear)"/>
</g>
<g filter="url(#filter10_f)">
<path d="M26.4311 43.6673L25.3161 50.2781L44.5383 56.797L42.7788 46.469L26.4311 43.6673Z" fill="url(#paint6_linear)"/>
</g>
<g filter="url(#filter11_f)">
<path d="M56.9653 37.347L66.322 6.66209L59.052 38.4006L56.9653 37.347Z" fill="url(#paint7_linear)"/>
</g>
<g filter="url(#filter12_f)">
<path d="M59.8428 36.2643L72.4827 18.7061L65.4226 35.3082L59.8428 36.2643Z" fill="url(#paint8_linear)"/>
</g>
<g filter="url(#filter13_f)">
<path d="M32.4603 41.1438L13.3068 15.4095L34.5463 40.0888L32.4603 41.1438Z" fill="url(#paint9_linear)"/>
</g>
<g filter="url(#filter14_f)">
<path d="M48.9427 36.7883L60.2318 9.84448L51.6538 36.263L48.9427 36.7883Z" fill="url(#paint10_linear)"/>
</g>
<g filter="url(#filter15_f)">
<path d="M45.9566 37.1667L48.6496 8.86658L50.9219 35.5618L45.9566 37.1667Z" fill="url(#paint11_linear)"/>
</g>
<g filter="url(#filter16_f)">
<path d="M33.6977 37.462L33.6977 12.8689L44.1686 33.5953L33.6977 37.462Z" fill="url(#paint12_linear)"/>
</g>
<g filter="url(#filter17_i)">
<path d="M71.1215 25.9434L72.9061 34.1621L39.6509 44.6989L36.9038 32.7772L71.1215 25.9434Z" fill="url(#paint13_linear)"/>
<path d="M71.1215 25.9434L72.9061 34.1621L39.6509 44.6989L36.9038 32.7772L71.1215 25.9434Z" fill="url(#paint14_linear)" fill-opacity="0.8"/>
</g>
<g filter="url(#filter18_i)">
<path d="M39.6508 44.6985L22.8879 45.3408L21.0131 37.393L36.9038 32.7769L39.6508 44.6985Z" fill="url(#paint15_linear)"/>
<path d="M39.6508 44.6985L22.8879 45.3408L21.0131 37.393L36.9038 32.7769L39.6508 44.6985Z" fill="url(#paint16_linear)"/>
</g>
<defs>
<filter id="filter0_f" x="15.6085" y="28.6938" width="71.6833" height="68.9011" filterUnits="userSpaceOnUse" color-interpolation-filters="sRGB">
<feFlood flood-opacity="0" result="BackgroundImageFix"/>
<feBlend mode="normal" in="SourceGraphic" in2="BackgroundImageFix" result="shape"/>
<feGaussianBlur stdDeviation="5" result="effect1_foregroundBlur"/>
</filter>
<filter id="filter1_i" x="41.4098" y="37.072" width="37.0388" height="50.0578" filterUnits="userSpaceOnUse" color-interpolation-filters="sRGB">
<feFlood flood-opacity="0" result="BackgroundImageFix"/>
<feBlend mode="normal" in="SourceGraphic" in2="BackgroundImageFix" result="shape"/>
<feColorMatrix in="SourceAlpha" type="matrix" values="0 0 0 0 0 0 0 0 0 0 0 0 0 0 0 0 0 0 127 0" result="hardAlpha"/>
<feOffset dx="1.15682" dy="1.15682"/>
<feGaussianBlur stdDeviation="0.578412"/>
<feComposite in2="hardAlpha" operator="arithmetic" k2="-1" k3="1"/>
<feColorMatrix type="matrix" values="0 0 0 0 1 0 0 0 0 1 0 0 0 0 1 0 0 0 0.16 0"/>
<feBlend mode="normal" in2="shape" result="effect1_innerShadow"/>
</filter>
<filter id="filter2_i" x="24.4515" y="45.3308" width="26.0306" height="41.7989" filterUnits="userSpaceOnUse" color-interpolation-filters="sRGB">
<feFlood flood-opacity="0" result="BackgroundImageFix"/>
<feBlend mode="normal" in="SourceGraphic" in2="BackgroundImageFix" result="shape"/>
<feColorMatrix in="SourceAlpha" type="matrix" values="0 0 0 0 0 0 0 0 0 0 0 0 0 0 0 0 0 0 127 0" result="hardAlpha"/>
<feOffset dx="-1.15682" dy="1.15682"/>
<feGaussianBlur stdDeviation="0.578412"/>
<feComposite in2="hardAlpha" operator="arithmetic" k2="-1" k3="1"/>
<feColorMatrix type="matrix" values="0 0 0 0 1 0 0 0 0 1 0 0 0 0 1 0 0 0 0.06 0"/>
<feBlend mode="normal" in2="shape" result="effect1_innerShadow"/>
</filter>
<filter id="filter3_i" x="34.3229" y="55.9587" width="5.12124" height="14.6168" filterUnits="userSpaceOnUse" color-interpolation-filters="sRGB">
<feFlood flood-opacity="0" result="BackgroundImageFix"/>
<feBlend mode="normal" in="SourceGraphic" in2="BackgroundImageFix" result="shape"/>
<feColorMatrix in="SourceAlpha" type="matrix" values="0 0 0 0 0 0 0 0 0 0 0 0 0 0 0 0 0 0 127 0" result="hardAlpha"/>
<feOffset dy="4.6273"/>
<feGaussianBlur stdDeviation="2.31365"/>
<feComposite in2="hardAlpha" operator="arithmetic" k2="-1" k3="1"/>
<feColorMatrix type="matrix" values="0 0 0 0 0 0 0 0 0 0 0 0 0 0 0 0 0 0 0.25 0"/>
<feBlend mode="normal" in2="shape" result="effect1_innerShadow"/>
</filter>
<filter id="filter4_i" x="38.5576" y="66.6072" width="1.83306" height="7.62619" filterUnits="userSpaceOnUse" color-interpolation-filters="sRGB">
<feFlood flood-opacity="0" result="BackgroundImageFix"/>
<feBlend mode="normal" in="SourceGraphic" in2="BackgroundImageFix" result="shape"/>
<feColorMatrix in="SourceAlpha" type="matrix" values="0 0 0 0 0 0 0 0 0 0 0 0 0 0 0 0 0 0 127 0" result="hardAlpha"/>
<feOffset dy="4.6273"/>
<feGaussianBlur stdDeviation="2.31365"/>
<feComposite in2="hardAlpha" operator="arithmetic" k2="-1" k3="1"/>
<feColorMatrix type="matrix" values="0 0 0 0 0 0 0 0 0 0 0 0 0 0 0 0 0 0 0.25 0"/>
<feBlend mode="normal" in2="shape" result="effect1_innerShadow"/>
</filter>
<filter id="filter5_d" x="12.5007" y="24.0945" width="76.98" height="39.5149" filterUnits="userSpaceOnUse" color-interpolation-filters="sRGB">
<feFlood flood-opacity="0" result="BackgroundImageFix"/>
<feColorMatrix in="SourceAlpha" type="matrix" values="0 0 0 0 0 0 0 0 0 0 0 0 0 0 0 0 0 0 127 0"/>
<feOffset dx="0.774118" dy="0.903138"/>
<feGaussianBlur stdDeviation="6.94095"/>
<feColorMatrix type="matrix" values="0 0 0 0 0.945098 0 0 0 0 0.87451 0 0 0 0 0.768627 0 0 0 1 0"/>
<feBlend mode="normal" in2="BackgroundImageFix" result="effect1_dropShadow"/>
<feBlend mode="normal" in="SourceGraphic" in2="effect1_dropShadow" result="shape"/>
</filter>
<filter id="filter6_f" x="0.379449" y="19.1216" width="92.2065" height="46.1331" filterUnits="userSpaceOnUse" color-interpolation-filters="sRGB">
<feFlood flood-opacity="0" result="BackgroundImageFix"/>
<feBlend mode="normal" in="SourceGraphic" in2="BackgroundImageFix" result="shape"/>
<feGaussianBlur stdDeviation="2.89206" result="effect1_foregroundBlur"/>
</filter>
<filter id="filter7_f" x="39.1341" y="31.89" width="38.8016" height="29.9195" filterUnits="userSpaceOnUse" color-interpolation-filters="sRGB">
<feFlood flood-opacity="0" result="BackgroundImageFix"/>
<feBlend mode="normal" in="SourceGraphic" in2="BackgroundImageFix" result="shape"/>
<feGaussianBlur stdDeviation="2.31365" result="effect1_foregroundBlur"/>
</filter>
<filter id="filter8_f" x="34.5518" y="38.6161" width="26.2236" height="22.3482" filterUnits="userSpaceOnUse" color-interpolation-filters="sRGB">
<feFlood flood-opacity="0" result="BackgroundImageFix"/>
<feBlend mode="normal" in="SourceGraphic" in2="BackgroundImageFix" result="shape"/>
<feGaussianBlur stdDeviation="2.31365" result="effect1_foregroundBlur"/>
</filter>
<filter id="filter9_f" x="53.1377" y="30.6276" width="22.7541" height="19.1448" filterUnits="userSpaceOnUse" color-interpolation-filters="sRGB">
<feFlood flood-opacity="0" result="BackgroundImageFix"/>
<feBlend mode="normal" in="SourceGraphic" in2="BackgroundImageFix" result="shape"/>
<feGaussianBlur stdDeviation="2.31365" result="effect1_foregroundBlur"/>
</filter>
<filter id="filter10_f" x="20.6889" y="39.0399" width="28.4768" height="22.3842" filterUnits="userSpaceOnUse" color-interpolation-filters="sRGB">
<feFlood flood-opacity="0" result="BackgroundImageFix"/>
<feBlend mode="normal" in="SourceGraphic" in2="BackgroundImageFix" result="shape"/>
<feGaussianBlur stdDeviation="2.31365" result="effect1_foregroundBlur"/>
</filter>
<filter id="filter11_f" x="51.1812" y="0.877985" width="20.925" height="43.3067" filterUnits="userSpaceOnUse" color-interpolation-filters="sRGB">
<feFlood flood-opacity="0" result="BackgroundImageFix"/>
<feBlend mode="normal" in="SourceGraphic" in2="BackgroundImageFix" result="shape"/>
<feGaussianBlur stdDeviation="2.89206" result="effect1_foregroundBlur"/>
</filter>
<filter id="filter12_f" x="55.2155" y="14.0788" width="21.8945" height="26.8128" filterUnits="userSpaceOnUse" color-interpolation-filters="sRGB">
<feFlood flood-opacity="0" result="BackgroundImageFix"/>
<feBlend mode="normal" in="SourceGraphic" in2="BackgroundImageFix" result="shape"/>
<feGaussianBlur stdDeviation="2.31365" result="effect1_foregroundBlur"/>
</filter>
<filter id="filter13_f" x="7.52264" y="9.6253" width="32.8078" height="37.3025" filterUnits="userSpaceOnUse" color-interpolation-filters="sRGB">
<feFlood flood-opacity="0" result="BackgroundImageFix"/>
<feBlend mode="normal" in="SourceGraphic" in2="BackgroundImageFix" result="shape"/>
<feGaussianBlur stdDeviation="2.89206" result="effect1_foregroundBlur"/>
</filter>
<filter id="filter14_f" x="43.1586" y="4.06036" width="22.8574" height="38.5121" filterUnits="userSpaceOnUse" color-interpolation-filters="sRGB">
<feFlood flood-opacity="0" result="BackgroundImageFix"/>
<feBlend mode="normal" in="SourceGraphic" in2="BackgroundImageFix" result="shape"/>
<feGaussianBlur stdDeviation="2.89206" result="effect1_foregroundBlur"/>
</filter>
<filter id="filter15_f" x="39.0156" y="1.92575" width="18.8472" height="42.182" filterUnits="userSpaceOnUse" color-interpolation-filters="sRGB">
<feFlood flood-opacity="0" result="BackgroundImageFix"/>
<feBlend mode="normal" in="SourceGraphic" in2="BackgroundImageFix" result="shape"/>
<feGaussianBlur stdDeviation="3.47047" result="effect1_foregroundBlur"/>
</filter>
<filter id="filter16_f" x="27.9135" y="7.08477" width="22.0391" height="36.1614" filterUnits="userSpaceOnUse" color-interpolation-filters="sRGB">
<feFlood flood-opacity="0" result="BackgroundImageFix"/>
<feBlend mode="normal" in="SourceGraphic" in2="BackgroundImageFix" result="shape"/>
<feGaussianBlur stdDeviation="2.89206" result="effect1_foregroundBlur"/>
</filter>
<filter id="filter17_i" x="36.9038" y="25.9434" width="36.7764" height="19.5297" filterUnits="userSpaceOnUse" color-interpolation-filters="sRGB">
<feFlood flood-opacity="0" result="BackgroundImageFix"/>
<feBlend mode="normal" in="SourceGraphic" in2="BackgroundImageFix" result="shape"/>
<feColorMatrix in="SourceAlpha" type="matrix" values="0 0 0 0 0 0 0 0 0 0 0 0 0 0 0 0 0 0 127 0" result="hardAlpha"/>
<feOffset dx="0.774118" dy="0.903138"/>
<feGaussianBlur stdDeviation="0.387059"/>
<feComposite in2="hardAlpha" operator="arithmetic" k2="-1" k3="1"/>
<feColorMatrix type="matrix" values="0 0 0 0 1 0 0 0 0 1 0 0 0 0 1 0 0 0 0.16 0"/>
<feBlend mode="normal" in2="shape" result="effect1_innerShadow"/>
</filter>
<filter id="filter18_i" x="21.0131" y="32.7769" width="19.4119" height="13.338" filterUnits="userSpaceOnUse" color-interpolation-filters="sRGB">
<feFlood flood-opacity="0" result="BackgroundImageFix"/>
<feBlend mode="normal" in="SourceGraphic" in2="BackgroundImageFix" result="shape"/>
<feColorMatrix in="SourceAlpha" type="matrix" values="0 0 0 0 0 0 0 0 0 0 0 0 0 0 0 0 0 0 127 0" result="hardAlpha"/>
<feOffset dx="0.774118" dy="0.903138"/>
<feGaussianBlur stdDeviation="0.387059"/>
<feComposite in2="hardAlpha" operator="arithmetic" k2="-1" k3="1"/>
<feColorMatrix type="matrix" values="0 0 0 0 1 0 0 0 0 1 0 0 0 0 1 0 0 0 0.16 0"/>
<feBlend mode="normal" in2="shape" result="effect1_innerShadow"/>
</filter>
<linearGradient id="paint0_linear" x1="81.7973" y1="28.2798" x2="46.9255" y2="88.886" gradientUnits="userSpaceOnUse">
<stop stop-color="#F3AC02"/>
<stop offset="1" stop-color="#FFE98C"/>
</linearGradient>
<linearGradient id="paint1_linear" x1="9.49309" y1="40.5286" x2="45.4448" y2="78.4814" gradientUnits="userSpaceOnUse">
<stop stop-color="#D89000"/>
<stop offset="1" stop-color="#FFE98C"/>
</linearGradient>
<radialGradient id="paint2_radial" cx="0" cy="0" r="1" gradientUnits="userSpaceOnUse" gradientTransform="translate(48.2597 42.7617) rotate(-106.891) scale(26.3087 39.765)">
<stop stop-color="white"/>
<stop offset="1" stop-color="white" stop-opacity="0"/>
</radialGradient>
<linearGradient id="paint3_linear" x1="58.6308" y1="38.2561" x2="70.9021" y2="51.7093" gradientUnits="userSpaceOnUse">
<stop stop-color="white"/>
<stop offset="0.0001" stop-color="white" stop-opacity="0.989583"/>
<stop offset="1" stop-color="white" stop-opacity="0"/>
</linearGradient>
<linearGradient id="paint4_linear" x1="52.524" y1="40.5535" x2="64.7953" y2="54.0067" gradientUnits="userSpaceOnUse">
<stop stop-color="white"/>
<stop offset="1" stop-color="white" stop-opacity="0"/>
</linearGradient>
<linearGradient id="paint5_linear" x1="61.9027" y1="34.7243" x2="73.4737" y2="43.2738" gradientUnits="userSpaceOnUse">
<stop stop-color="white"/>
<stop offset="1" stop-color="white" stop-opacity="0"/>
</linearGradient>
<linearGradient id="paint6_linear" x1="43.1077" y1="42.2279" x2="40.476" y2="54.9698" gradientUnits="userSpaceOnUse">
<stop stop-color="white"/>
<stop offset="0.0001" stop-color="white" stop-opacity="0.989583"/>
<stop offset="1" stop-color="white" stop-opacity="0"/>
</linearGradient>
<linearGradient id="paint7_linear" x1="56.7153" y1="48.2495" x2="49.3114" y2="8.86548" gradientUnits="userSpaceOnUse">
<stop stop-color="white"/>
<stop offset="1" stop-color="white" stop-opacity="0"/>
</linearGradient>
<linearGradient id="paint8_linear" x1="62.9419" y1="38.5191" x2="67.4259" y2="15.2576" gradientUnits="userSpaceOnUse">
<stop stop-color="white"/>
<stop offset="1" stop-color="white" stop-opacity="0"/>
</linearGradient>
<linearGradient id="paint9_linear" x1="41.0894" y1="47.8121" x2="4.99042" y2="30.4114" gradientUnits="userSpaceOnUse">
<stop stop-color="white"/>
<stop offset="1" stop-color="white" stop-opacity="0"/>
</linearGradient>
<linearGradient id="paint10_linear" x1="46.3636" y1="47.3847" x2="47.5663" y2="7.32878" gradientUnits="userSpaceOnUse">
<stop stop-color="white"/>
<stop offset="1" stop-color="white" stop-opacity="0"/>
</linearGradient>
<linearGradient id="paint11_linear" x1="48.4696" y1="45.9816" x2="42.0338" y2="10.0344" gradientUnits="userSpaceOnUse">
<stop stop-color="white"/>
<stop offset="1" stop-color="white" stop-opacity="0"/>
</linearGradient>
<linearGradient id="paint12_linear" x1="33.377" y1="46.6229" x2="38.3122" y2="10.439" gradientUnits="userSpaceOnUse">
<stop stop-color="#FDFDFD"/>
<stop offset="1" stop-color="white" stop-opacity="0"/>
</linearGradient>
<linearGradient id="paint13_linear" x1="77.4267" y1="22.5712" x2="74.4974" y2="63.4136" gradientUnits="userSpaceOnUse">
<stop stop-color="#F3AC02"/>
<stop offset="1" stop-color="#FFE98C"/>
</linearGradient>
<linearGradient id="paint14_linear" x1="68.6658" y1="55.7934" x2="56.3916" y2="21.4575" gradientUnits="userSpaceOnUse">
<stop stop-color="white"/>
<stop offset="1" stop-color="white" stop-opacity="0"/>
</linearGradient>
<linearGradient id="paint15_linear" x1="8.93804" y1="31.2923" x2="13.4437" y2="60.8863" gradientUnits="userSpaceOnUse">
<stop stop-color="#D89000"/>
<stop offset="1" stop-color="#FFE98C"/>
</linearGradient>
<linearGradient id="paint16_linear" x1="30.2089" y1="57.981" x2="27.0824" y2="33.9066" gradientUnits="userSpaceOnUse">
<stop stop-color="white"/>
<stop offset="1" stop-color="white" stop-opacity="0"/>
</linearGradient>
</defs>
</svg>
