<svg width="24" height="24" viewBox="0 0 24 24" fill="none" xmlns="http://www.w3.org/2000/svg">
<path d="M19.4 13.1483C18.7432 13.1483 18.2088 12.6335 18.2088 12.0008C18.2088 11.3681 18.7432 10.8532 19.4 10.8532C19.56 10.8532 19.712 10.7924 19.8248 10.6837C19.9368 10.5758 20 10.4278 20 10.2752L19.9992 8.19289C19.9992 6.43268 18.512 5 16.6848 5H7.3152C5.488 5 4.0016 6.43268 4.0016 8.19289L4 10.3423C4 10.4949 4.0632 10.6421 4.176 10.7507C4.2888 10.8594 4.4408 10.9203 4.6 10.9203C5.2792 10.9203 5.792 11.3842 5.792 12.0008C5.792 12.6335 5.2576 13.1483 4.6 13.1483C4.2688 13.1483 4 13.4072 4 13.7263V15.8079C4 17.5681 5.4872 19 7.3144 19H16.6864C18.5136 19 20 17.5681 20 15.8079V13.7263C20 13.4072 19.7312 13.1483 19.4 13.1483Z" fill="white"/>
<path d="M12.6 9.6C12.6 9.26863 12.3314 9 12 9C11.6686 9 11.4 9.26863 11.4 9.6V11.4H9.6C9.26863 11.4 9 11.6686 9 12C9 12.3314 9.26863 12.6 9.6 12.6H11.4V14.4C11.4 14.7314 11.6686 15 12 15C12.3314 15 12.6 14.7314 12.6 14.4V12.6H14.4C14.7314 12.6 15 12.3314 15 12C15 11.6686 14.7314 11.4 14.4 11.4H12.6V9.6Z" fill="#03090F"/>
</svg>
