<svg width="16" height="17" viewBox="0 0 16 17" fill="none" xmlns="http://www.w3.org/2000/svg">
<path fill-rule="evenodd" clip-rule="evenodd" d="M1.00002 0C0.447728 0 0 0.447728 0 1.00002C0 1.55231 0.447728 2.00004 1.00002 2.00004H2.21926L2.52483 3.2223C2.52804 3.23643 2.53155 3.25045 2.53535 3.26435L3.8926 8.69337L3 9.58597C1.74005 10.8459 2.6324 13.0002 4.41424 13.0002H13.0002C13.5524 13.0002 14.0003 12.5525 14.0003 12.0002C14.0003 11.4479 13.5524 11.0002 13.0002 11.0002H4.41425L5.41426 10.0002H12.0002C12.379 10.0002 12.7252 9.78618 12.8946 9.44737L15.8947 3.44727C16.0497 3.13729 16.0332 2.76914 15.851 2.47431C15.6687 2.17949 15.3469 2.00004 15.0003 2.00004H4.28086L3.97021 0.757474C3.85892 0.312306 3.45893 0 3.00005 0H1.00002ZM14.0006 15.5004C14.0006 16.3288 13.329 17.0004 12.5006 17.0004C11.6722 17.0004 11.0006 16.3288 11.0006 15.5004C11.0006 14.672 11.6722 14.0004 12.5006 14.0004C13.329 14.0004 14.0006 14.672 14.0006 15.5004ZM6.00033 15.5004C6.00033 16.3288 5.32874 17.0004 4.5003 17.0004C3.67185 17.0004 3.00027 16.3288 3.00027 15.5004C3.00027 14.672 3.67185 14.0004 4.5003 14.0004C5.32874 14.0004 6.00033 14.672 6.00033 15.5004Z" fill="#03090F"/>
</svg>
