<svg width="10" height="14" viewBox="0 0 10 14" fill="none" xmlns="http://www.w3.org/2000/svg">
<path d="M2.71429 3.74286V2.37143C2.71429 2.0077 2.83469 1.65887 3.04902 1.40168C3.26335 1.14449 3.55404 1 3.85714 1H6.14286C6.44596 1 6.73665 1.14449 6.95098 1.40168C7.16531 1.65887 7.28571 2.0077 7.28571 2.37143V3.74286M9 3.74286V11.6286C9 11.9923 8.87959 12.3411 8.66527 12.5983C8.45094 12.8555 8.16025 13 7.85714 13H2.14286C1.83975 13 1.54906 12.8555 1.33474 12.5983C1.12041 12.3411 1 11.9923 1 11.6286V3.74286H9Z" stroke="#4D555D" stroke-width="2" stroke-linecap="round" stroke-linejoin="round"/>
</svg>
