<svg width="10" height="8" viewBox="0 0 10 8" fill="none" xmlns="http://www.w3.org/2000/svg">
<path fill-rule="evenodd" clip-rule="evenodd" d="M9.76162 1.64302C10.1167 1.22004 10.0617 0.589273 9.63875 0.234155C9.21577 -0.120963 8.585 -0.0659519 8.22988 0.357025L4.09547 5.28148L1.66622 3.11138C1.25434 2.74344 0.622178 2.77906 0.254243 3.19094C-0.113693 3.60282 -0.0780726 4.23498 0.333803 4.60291L3.52286 7.45175C3.5334 7.4614 3.5442 7.47086 3.55525 7.48014C3.75592 7.64861 4.00335 7.72478 4.24592 7.71314C4.50445 7.70081 4.75806 7.58875 4.94411 7.38048C4.95388 7.36954 4.96337 7.35844 4.97257 7.3472L9.76162 1.64302Z" fill="#AD4BFB"/>
</svg>
