<svg width="32" height="32" viewBox="0 0 32 32" fill="none" xmlns="http://www.w3.org/2000/svg">
<path d="M10.0642 22.8166C11.6954 22.8166 14.3545 24.2617 21.7736 24.2617C26.3997 24.2617 29.506 22.0493 29.506 16.4505C29.506 11.2046 26.5884 10.4066 25.543 10.4066C25.1163 10.4066 24.6464 10.4941 24.3752 10.598C24.9172 10.1746 25.4906 9.59013 25.4388 8.75291C25.3769 7.7585 24.1419 5.84802 20.6336 5.84802C17.1254 5.84802 12.0843 8.59951 10.0523 10.2475C9.45055 11.234 9.09838 12.6579 8.93499 14.2002C8.8726 14.7936 4.74268 15.8623 4.74268 15.8623V16.9452C4.74268 16.9452 8.85991 17.746 8.88232 18.0623C9.03896 20.2914 9.49592 22.2114 10.0642 22.8166Z" fill="#E01462"/>
<path d="M19.7295 11.8737C20.7317 12.6142 21.8693 13.5975 22.2355 14.3491C23.9313 12.4216 24.291 10.7728 23.9313 10.5133C22.6981 10.8217 20.2885 10.7083 19.7295 11.8737Z" fill="#871041"/>
<mask id="mask0" mask-type="alpha" maskUnits="userSpaceOnUse" x="4" y="5" width="26" height="20">
<path fill-rule="evenodd" clip-rule="evenodd" d="M10.0642 22.8166C11.6954 22.8166 14.3545 24.2617 21.7736 24.2617C26.3997 24.2617 29.506 22.0493 29.506 16.4505C29.506 11.2046 26.5884 10.4066 25.543 10.4066C25.1163 10.4066 24.6464 10.4941 24.3752 10.598C24.9172 10.1746 25.4906 9.59013 25.4388 8.75291C25.3769 7.7585 24.1419 5.84802 20.6336 5.84802C17.1254 5.84802 12.0843 8.59951 10.0523 10.2475C9.45055 11.234 9.09838 12.6579 8.93499 14.2002C8.8726 14.7936 4.74268 15.8623 4.74268 15.8623V16.9452C4.74268 16.9452 8.85991 17.746 8.88232 18.0623C9.03896 20.2914 9.49592 22.2114 10.0642 22.8166Z" fill="white"/>
</mask>
<g mask="url(#mask0)">
<path d="M10.4653 9.92798C10.881 10.8049 12.8773 12.1596 14.3638 12.6084C15.8497 13.057 20.4709 12.0151 22.1162 11.5376C23.2524 11.2078 23.7871 11.0045 24.3748 10.598C25.4626 9.84588 25.6104 9.19798 25.3503 8.32025C25.4775 10.4076 22.3301 10.9256 19.036 9.88801C15.7938 8.86606 13.0286 8.83771 10.4653 9.92798Z" fill="#B21B59"/>
</g>
<mask id="mask1" mask-type="alpha" maskUnits="userSpaceOnUse" x="4" y="5" width="26" height="20">
<path fill-rule="evenodd" clip-rule="evenodd" d="M10.0642 22.8166C11.6954 22.8166 14.3545 24.2617 21.7736 24.2617C26.3997 24.2617 29.506 22.0493 29.506 16.4505C29.506 11.2046 26.5884 10.4066 25.543 10.4066C25.1163 10.4066 24.6464 10.4941 24.3752 10.598C24.9172 10.1746 25.4906 9.59013 25.4388 8.75291C25.3769 7.7585 24.1419 5.84802 20.6336 5.84802C17.1254 5.84802 12.0843 8.59951 10.0523 10.2475C9.45055 11.234 9.09838 12.6579 8.93499 14.2002C8.8726 14.7936 4.74268 15.8623 4.74268 15.8623V16.9452C4.74268 16.9452 8.85991 17.746 8.88232 18.0623C9.03896 20.2914 9.49592 22.2114 10.0642 22.8166Z" fill="white"/>
</mask>
<g mask="url(#mask1)">
<path fill-rule="evenodd" clip-rule="evenodd" d="M9.38657 23.7208C9.15458 20.9636 9.1878 20.1059 9.1878 20.1059L4.54663 17.1546V15.8075L9.7482 9.93908L10.4658 9.54181C10.4658 9.54181 10.4658 18.5552 10.4658 21.0765C16.8411 22.6535 20.1702 21.7166 22.727 18.4558C24.5257 19.2754 28.2813 20.571 25.4517 23.902C22.6225 27.2333 9.38657 23.7208 9.38657 23.7208Z" fill="#871041"/>
</g>
<path fill-rule="evenodd" clip-rule="evenodd" d="M16.8403 22.4685C20.0912 22.4685 22.7265 19.8332 22.7265 16.5823C22.7265 13.3314 20.0912 10.6961 16.8403 10.6961C13.5894 10.6961 10.9541 13.3314 10.9541 16.5823C10.9541 19.8332 13.5894 22.4685 16.8403 22.4685Z" fill="white"/>
<mask id="mask2" mask-type="alpha" maskUnits="userSpaceOnUse" x="10" y="10" width="13" height="13">
<path fill-rule="evenodd" clip-rule="evenodd" d="M16.8403 22.4685C20.0912 22.4685 22.7265 19.8332 22.7265 16.5823C22.7265 13.3314 20.0912 10.6961 16.8403 10.6961C13.5894 10.6961 10.9541 13.3314 10.9541 16.5823C10.9541 19.8332 13.5894 22.4685 16.8403 22.4685Z" fill="white"/>
</mask>
<g mask="url(#mask2)">
<path opacity="0.3" d="M11.7944 19.6144C12.9838 20.8608 16.5439 21.1414 18.941 19.7853C20.7519 18.7615 22.6453 16.2345 22.1484 14.0347C24.642 19.1909 20.6908 23.1097 18.664 24.1678C16.6365 25.2257 13.1521 22.5792 11.7944 19.6144Z" fill="#872D49"/>
</g>
<path fill-rule="evenodd" clip-rule="evenodd" d="M17.7835 15.2911C17.7835 15.6995 17.5056 16.067 17.2517 16.363L14.7838 19.2331H18.8989V18.1236H17.1964L18.0922 17.082C18.5305 16.5726 18.8924 15.9855 18.8924 15.2914C18.8924 14.1565 17.9723 13.2361 16.8372 13.2361C15.6967 13.2361 14.7825 14.1622 14.7825 15.2914H15.8911C15.8911 14.7677 16.3154 14.3451 16.8372 14.3451C17.3598 14.3448 17.7835 14.7683 17.7835 15.2911Z" fill="#020000"/>
<path fill-rule="evenodd" clip-rule="evenodd" d="M9.63809 16.3143H5.13304C4.53213 16.3143 4.04492 15.8274 4.04492 15.2265V10.201C4.04492 10.0282 4.18509 9.888 4.35793 9.888H9.75044C9.92329 9.888 10.0637 10.0284 10.0637 10.201V15.8887C10.064 16.1237 9.87305 16.3143 9.63809 16.3143Z" fill="#E01462"/>
<path fill-rule="evenodd" clip-rule="evenodd" d="M9.63809 16.672H5.13304C4.53213 16.672 4.04492 17.1595 4.04492 17.7601V22.9638C4.04492 23.137 4.18509 23.2771 4.35793 23.2771H9.75044C9.92329 23.2771 10.0637 23.1367 10.0637 22.9638V17.0974C10.064 16.8624 9.87305 16.672 9.63809 16.672Z" fill="#E01462"/>
<mask id="mask3" mask-type="alpha" maskUnits="userSpaceOnUse" x="4" y="16" width="7" height="8">
<path fill-rule="evenodd" clip-rule="evenodd" d="M9.63809 16.672H5.13304C4.53213 16.672 4.04492 17.1595 4.04492 17.7601V22.9638C4.04492 23.137 4.18509 23.2771 4.35793 23.2771H9.75044C9.92329 23.2771 10.0637 23.1367 10.0637 22.9638V17.0974C10.064 16.8624 9.87305 16.672 9.63809 16.672Z" fill="white"/>
</mask>
<g mask="url(#mask3)">
<rect x="3.8186" y="20.8953" width="6.38799" height="2.42605" fill="#BA174D"/>
</g>
<path d="M7.60474 16.4953L8.8341 14.9894C8.98615 14.8033 8.95833 14.5289 8.77198 14.3766C8.58563 14.2246 8.31124 14.2521 8.15919 14.4385L7.04272 15.8061L5.95001 14.4674C5.79796 14.2813 5.52357 14.2532 5.33695 14.4053C5.1506 14.5573 5.12278 14.832 5.27483 15.0186L6.48043 16.4953L5.27483 17.9726C5.12278 18.1584 5.1506 18.4334 5.33695 18.5854C5.41797 18.6516 5.5152 18.6834 5.61215 18.6834C5.73855 18.6834 5.86386 18.6292 5.95001 18.5233L7.04272 17.1843L8.15919 18.5522C8.24534 18.6578 8.37093 18.7123 8.49705 18.7123C8.59347 18.7123 8.69123 18.6802 8.77198 18.6143C8.9586 18.4625 8.98615 18.1879 8.8341 18.0015L7.60474 16.4953Z" fill="white"/>
<path opacity="0.35" d="M22.1743 9.59018C22.9605 9.59018 23.5978 9.2833 23.5978 8.90474C23.5978 8.52618 22.9605 8.2193 22.1743 8.2193C21.3881 8.2193 20.7507 8.52618 20.7507 8.90474C20.7507 9.2833 21.3881 9.59018 22.1743 9.59018Z" fill="white"/>
<path opacity="0.35" fill-rule="evenodd" clip-rule="evenodd" d="M9.02754 11.8736H5.08126C4.79931 11.8736 4.57056 11.6446 4.57056 11.3626V11.1636C4.57056 10.8814 4.79931 10.6529 5.08126 10.6529H9.02727C9.30949 10.6529 9.53797 10.8814 9.53797 11.1636V11.3626C9.53797 11.6446 9.30976 11.8736 9.02754 11.8736Z" fill="white"/>
<path d="M21.7737 24.2617C26.3998 24.2617 29.5061 22.0493 29.5061 16.4505C29.5061 11.2046 26.5885 10.4066 25.5431 10.4066C25.1164 10.4066 24.6465 10.4941 24.3753 10.598C22.1745 11.5827 21.5795 14.5894 21.5501 16.3554C21.4812 20.4797 24.9392 23.5725 21.7737 24.2617Z" fill="#E01462"/>
<mask id="mask4" mask-type="alpha" maskUnits="userSpaceOnUse" x="21" y="10" width="9" height="15">
<path fill-rule="evenodd" clip-rule="evenodd" d="M21.7737 24.2617C26.3998 24.2617 29.5061 22.0493 29.5061 16.4505C29.5061 11.2046 26.5885 10.4066 25.5431 10.4066C25.1164 10.4066 24.6465 10.4941 24.3753 10.598C22.1745 11.5827 21.5795 14.5894 21.5501 16.3554C21.4812 20.4797 24.9392 23.5725 21.7737 24.2617Z" fill="white"/>
</mask>
<g mask="url(#mask4)">
<path fill-rule="evenodd" clip-rule="evenodd" d="M22.4521 20.5604C24.1439 22.8957 29.9439 20.3411 29.3916 14.7742C30.3242 17.7628 29.2234 21.9589 27.2483 23.1736C25.2741 24.389 21.8269 25.7342 21.306 24.6925C20.9457 23.9714 21.9612 23.2012 22.4521 20.5604Z" fill="#B21B59"/>
</g>
<path opacity="0.35" d="M25.5139 13.7703C26.3764 13.1359 26.7776 12.2165 26.4101 11.7168C26.0425 11.2171 25.0454 11.3264 24.1828 11.9608C23.3203 12.5952 22.9191 13.5146 23.2866 14.0143C23.6542 14.514 24.6513 14.4048 25.5139 13.7703Z" fill="white"/>
</svg>
