<svg width="35" height="38" viewBox="0 0 35 38" fill="none" xmlns="http://www.w3.org/2000/svg">
<g filter="url(#filter0_i)">
<path fill-rule="evenodd" clip-rule="evenodd" d="M11 28C7.68629 28 5 25.3137 5 22V17C6.10457 17 7 16.1046 7 15C7 13.8954 6.10457 13 5 13V6C5 2.68629 7.68629 0 11 0H23C26.3137 0 29 2.68629 29 6L29 13C27.8954 13 27 13.8954 27 15C27 16.1046 27.8954 17 29 17L29 22C29 25.3137 26.3137 28 23 28H11Z" fill="url(#paint0_linear)"/>
</g>
<g opacity="0.4" filter="url(#filter1_i)">
<path d="M7 15C7 13.8954 6.10457 13 5 13V6C5 2.68629 7.68629 0 11 0H23C26.3137 0 29 2.68629 29 6L29 13C27.8954 13 27 13.8954 27 15L7 15Z" fill="white"/>
</g>
<g opacity="0.6" filter="url(#filter2_f)">
<rect x="10" y="28" width="18" height="15" transform="rotate(-90 10 28)" fill="#CD4122"/>
</g>
<g filter="url(#filter3_b)">
<path d="M9.5 23C10.3284 23 11 22.3284 11 21.5C11 20.6716 10.3284 20 9.5 20C8.67157 20 8 20.6716 8 21.5C8 22.3284 8.67157 23 9.5 23Z" fill="white" fill-opacity="0.6"/>
</g>
<g filter="url(#filter4_b)">
<path d="M14.5 23C15.3284 23 16 22.3284 16 21.5C16 20.6716 15.3284 20 14.5 20C13.6716 20 13 20.6716 13 21.5C13 22.3284 13.6716 23 14.5 23Z" fill="white" fill-opacity="0.6"/>
</g>
<g filter="url(#filter5_b)">
<path d="M19.5 23C20.3284 23 21 22.3284 21 21.5C21 20.6716 20.3284 20 19.5 20C18.6716 20 18 20.6716 18 21.5C18 22.3284 18.6716 23 19.5 23Z" fill="white" fill-opacity="0.6"/>
</g>
<g filter="url(#filter6_b)">
<path d="M24.5 23C25.3284 23 26 22.3284 26 21.5C26 20.6716 25.3284 20 24.5 20C23.6716 20 23 20.6716 23 21.5C23 22.3284 23.6716 23 24.5 23Z" fill="white" fill-opacity="0.6"/>
</g>
<defs>
<filter id="filter0_i" x="5" y="0" width="25.3481" height="29.3481" filterUnits="userSpaceOnUse" color-interpolation-filters="sRGB">
<feFlood flood-opacity="0" result="BackgroundImageFix"/>
<feBlend mode="normal" in="SourceGraphic" in2="BackgroundImageFix" result="shape"/>
<feColorMatrix in="SourceAlpha" type="matrix" values="0 0 0 0 0 0 0 0 0 0 0 0 0 0 0 0 0 0 127 0" result="hardAlpha"/>
<feOffset dx="1.34814" dy="1.57283"/>
<feGaussianBlur stdDeviation="0.674072"/>
<feComposite in2="hardAlpha" operator="arithmetic" k2="-1" k3="1"/>
<feColorMatrix type="matrix" values="0 0 0 0 1 0 0 0 0 1 0 0 0 0 1 0 0 0 0.16 0"/>
<feBlend mode="normal" in2="shape" result="effect1_innerShadow"/>
</filter>
<filter id="filter1_i" x="5" y="0" width="25.3481" height="16.3481" filterUnits="userSpaceOnUse" color-interpolation-filters="sRGB">
<feFlood flood-opacity="0" result="BackgroundImageFix"/>
<feBlend mode="normal" in="SourceGraphic" in2="BackgroundImageFix" result="shape"/>
<feColorMatrix in="SourceAlpha" type="matrix" values="0 0 0 0 0 0 0 0 0 0 0 0 0 0 0 0 0 0 127 0" result="hardAlpha"/>
<feOffset dx="1.34814" dy="1.57283"/>
<feGaussianBlur stdDeviation="0.674072"/>
<feComposite in2="hardAlpha" operator="arithmetic" k2="-1" k3="1"/>
<feColorMatrix type="matrix" values="0 0 0 0 1 0 0 0 0 1 0 0 0 0 1 0 0 0 0.16 0"/>
<feBlend mode="normal" in2="shape" result="effect1_innerShadow"/>
</filter>
<filter id="filter2_f" x="0.113617" y="0.113617" width="34.7728" height="37.7728" filterUnits="userSpaceOnUse" color-interpolation-filters="sRGB">
<feFlood flood-opacity="0" result="BackgroundImageFix"/>
<feBlend mode="normal" in="SourceGraphic" in2="BackgroundImageFix" result="shape"/>
<feGaussianBlur stdDeviation="4.94319" result="effect1_foregroundBlur"/>
</filter>
<filter id="filter3_b" x="7.4804" y="19.4804" width="4.03919" height="4.03919" filterUnits="userSpaceOnUse" color-interpolation-filters="sRGB">
<feFlood flood-opacity="0" result="BackgroundImageFix"/>
<feGaussianBlur in="BackgroundImage" stdDeviation="0.259798"/>
<feComposite in2="SourceAlpha" operator="in" result="effect1_backgroundBlur"/>
<feBlend mode="normal" in="SourceGraphic" in2="effect1_backgroundBlur" result="shape"/>
</filter>
<filter id="filter4_b" x="12.4804" y="19.4804" width="4.03919" height="4.03919" filterUnits="userSpaceOnUse" color-interpolation-filters="sRGB">
<feFlood flood-opacity="0" result="BackgroundImageFix"/>
<feGaussianBlur in="BackgroundImage" stdDeviation="0.259798"/>
<feComposite in2="SourceAlpha" operator="in" result="effect1_backgroundBlur"/>
<feBlend mode="normal" in="SourceGraphic" in2="effect1_backgroundBlur" result="shape"/>
</filter>
<filter id="filter5_b" x="17.4804" y="19.4804" width="4.03919" height="4.03919" filterUnits="userSpaceOnUse" color-interpolation-filters="sRGB">
<feFlood flood-opacity="0" result="BackgroundImageFix"/>
<feGaussianBlur in="BackgroundImage" stdDeviation="0.259798"/>
<feComposite in2="SourceAlpha" operator="in" result="effect1_backgroundBlur"/>
<feBlend mode="normal" in="SourceGraphic" in2="effect1_backgroundBlur" result="shape"/>
</filter>
<filter id="filter6_b" x="22.4804" y="19.4804" width="4.03919" height="4.03919" filterUnits="userSpaceOnUse" color-interpolation-filters="sRGB">
<feFlood flood-opacity="0" result="BackgroundImageFix"/>
<feGaussianBlur in="BackgroundImage" stdDeviation="0.259798"/>
<feComposite in2="SourceAlpha" operator="in" result="effect1_backgroundBlur"/>
<feBlend mode="normal" in="SourceGraphic" in2="effect1_backgroundBlur" result="shape"/>
</filter>
<linearGradient id="paint0_linear" x1="28.8393" y1="-6.8" x2="0.678558" y2="23.1279" gradientUnits="userSpaceOnUse">
<stop stop-color="#F4C466"/>
<stop offset="1" stop-color="#F46699"/>
</linearGradient>
</defs>
</svg>
