<svg width="32" height="32" viewBox="0 0 32 32" fill="none" xmlns="http://www.w3.org/2000/svg">
<g filter="url(#filter0_i)">
<circle cx="16" cy="16" r="16" fill="url(#paint0_linear)"/>
</g>
<g filter="url(#filter1_bd)">
<path d="M23.0968 12.4676C22.4054 12.4676 21.8444 13.025 21.8444 13.712C21.8444 13.896 21.8862 14.0671 21.9592 14.2253L20.0702 15.3504C19.6684 15.5889 19.1492 15.4541 18.917 15.0497L16.7905 11.3529C17.0697 11.1247 17.2523 10.7825 17.2523 10.3937C17.2523 9.70666 16.6914 9.14929 15.9999 9.14929C15.3085 9.14929 14.7475 9.70666 14.7475 10.3937C14.7475 10.7825 14.9302 11.1247 15.2094 11.3529L13.0829 15.0497C12.8507 15.4541 12.3289 15.5889 11.9296 15.3504L10.0432 14.2253C10.1137 14.0697 10.158 13.896 10.158 13.712C10.158 13.025 9.59706 12.4676 8.90564 12.4676C8.21421 12.4676 7.65063 13.025 7.65063 13.712C7.65063 14.399 8.2116 14.9563 8.90303 14.9563C8.97087 14.9563 9.03871 14.946 9.10393 14.9356L10.8321 21.7944C10.9251 22.1636 11.259 22.4225 11.642 22.4225H20.3578C20.7409 22.4225 21.0748 22.1636 21.1678 21.7944L22.8959 14.9356C22.9612 14.946 23.029 14.9563 23.0968 14.9563C23.7883 14.9563 24.3492 14.399 24.3492 13.712C24.3492 13.025 23.7883 12.4676 23.0968 12.4676Z" fill="white" fill-opacity="0.8"/>
</g>
<defs>
<filter id="filter0_i" x="0" y="0" width="33.6056" height="33.6056" filterUnits="userSpaceOnUse" color-interpolation-filters="sRGB">
<feFlood flood-opacity="0" result="BackgroundImageFix"/>
<feBlend mode="normal" in="SourceGraphic" in2="BackgroundImageFix" result="shape"/>
<feColorMatrix in="SourceAlpha" type="matrix" values="0 0 0 0 0 0 0 0 0 0 0 0 0 0 0 0 0 0 127 0" result="hardAlpha"/>
<feOffset dx="1.60563" dy="1.87324"/>
<feGaussianBlur stdDeviation="0.802817"/>
<feComposite in2="hardAlpha" operator="arithmetic" k2="-1" k3="1"/>
<feColorMatrix type="matrix" values="0 0 0 0 1 0 0 0 0 1 0 0 0 0 1 0 0 0 0.16 0"/>
<feBlend mode="normal" in2="shape" result="effect1_innerShadow"/>
</filter>
<filter id="filter1_bd" x="5.7774" y="7.81126" width="20.4451" height="17.5549" filterUnits="userSpaceOnUse" color-interpolation-filters="sRGB">
<feFlood flood-opacity="0" result="BackgroundImageFix"/>
<feGaussianBlur in="BackgroundImage" stdDeviation="0.669014"/>
<feComposite in2="SourceAlpha" operator="in" result="effect1_backgroundBlur"/>
<feColorMatrix in="SourceAlpha" type="matrix" values="0 0 0 0 0 0 0 0 0 0 0 0 0 0 0 0 0 0 127 0"/>
<feOffset dy="1.07042"/>
<feGaussianBlur stdDeviation="0.93662"/>
<feColorMatrix type="matrix" values="0 0 0 0 0 0 0 0 0 0 0 0 0 0 0 0 0 0 0.15 0"/>
<feBlend mode="normal" in2="effect1_backgroundBlur" result="effect2_dropShadow"/>
<feBlend mode="normal" in="SourceGraphic" in2="effect2_dropShadow" result="shape"/>
</filter>
<linearGradient id="paint0_linear" x1="32" y1="2.13358e-06" x2="8.82673" y2="37.4603" gradientUnits="userSpaceOnUse">
<stop stop-color="#FFB628"/>
<stop offset="1" stop-color="#F35B1A"/>
</linearGradient>
</defs>
</svg>
