<svg width="118" height="24" viewBox="0 0 118 24" fill="none" xmlns="http://www.w3.org/2000/svg">
<path fill-rule="evenodd" clip-rule="evenodd" d="M12.2594 4.74024L13.8002 3.95546C13.9342 3.89006 14.0012 3.69387 13.9342 3.53038L12.1589 0.162375C12.0584 -0.00112009 11.891 -0.0338191 11.7235 0.0315789L10.1827 0.816356C10.0152 0.914453 9.98172 1.07795 10.0487 1.24144L11.824 4.60944C11.9245 4.77294 12.0919 4.80564 12.2594 4.74024ZM8.54131 19.88C8.50782 20.2397 8.37383 20.7302 8.20636 21.0572L6.93353 23.6077C6.93353 23.6731 6.86654 23.6731 6.79955 23.6731C2.8806 22.6267 0 19.0952 0 14.9425C0 9.9395 4.18692 5.85212 9.3452 5.88482C9.91462 5.88482 10.4505 5.91752 10.9865 6.01562C11.02 6.01562 11.0535 6.04832 11.0535 6.08102C11.0008 6.50943 10.8745 7.44975 10.7566 8.32778L10.7566 8.32803L10.7566 8.3284C10.6495 9.12553 10.5494 9.8712 10.5175 10.1357C10.3977 10.9839 9.92943 11.2304 9.44839 11.4836C9.39165 11.5135 9.33474 11.5434 9.27821 11.5745L9.23118 11.5984C8.48562 11.9786 7.94858 12.2524 6.83305 11.836C6.02347 11.5378 5.38804 11.294 4.83781 11.0828C4.18149 10.831 3.6464 10.6256 3.08157 10.43C2.74662 10.2992 2.27768 10.43 2.1437 10.7897C2.00972 11.1494 2.1437 11.5091 2.51215 11.6399C2.51215 11.6399 4.38789 12.3265 5.15828 12.6535C5.44498 12.7807 5.7114 12.8894 5.95827 12.9901C6.98049 13.407 7.66768 13.6873 8.07238 14.5828C8.30684 15.1386 8.77578 16.3158 8.77578 16.839C8.74228 17.5911 8.54131 19.88 8.54131 19.88ZM18.5899 15.3348C18.3889 20.0434 14.4364 23.8692 9.61311 24C9.24467 24 8.87622 24 8.50777 23.9673C8.44078 23.9673 8.40728 23.8692 8.44078 23.8365L9.7471 21.5803C9.94807 21.2533 10.082 20.9263 10.1155 20.5339L10.3835 18.572C10.417 18.1796 10.618 17.7872 10.9864 17.6564L11.6228 17.4929C11.9913 17.3621 12.2927 17.4929 12.4602 17.8199C12.5941 18.0486 12.9287 18.7019 13.0629 18.9638L13.0629 18.964L13.0631 18.9642L13.0631 18.9643C13.1636 19.1278 13.1301 19.324 13.0296 19.4221C12.8636 19.6074 12.7185 19.7681 12.5825 19.9187L12.5824 19.9188C12.3345 20.1934 12.1169 20.4345 11.8573 20.7301C11.5893 21.0244 11.3549 21.4822 11.8238 21.8746C12.2592 22.267 12.6947 21.8419 12.9626 21.5803C13.2976 21.2533 13.8335 20.632 14.1685 20.2396C14.4699 19.9126 14.6374 19.6837 14.6709 19.2586C14.6709 19.0951 14.6709 18.9317 14.6039 18.7355C14.5414 18.5523 14.2963 17.9557 13.9812 17.1886L13.9811 17.1885L13.9811 17.1883L13.981 17.1881L13.9809 17.188L13.9807 17.1876L13.9807 17.1874C13.6209 16.3117 13.17 15.2141 12.7952 14.2557C12.1923 12.6861 11.8908 11.0839 12.0918 9.41623L12.4267 6.40792C12.4267 6.37522 12.4602 6.34252 12.5272 6.34252C16.1782 7.71588 18.7573 11.2474 18.5899 15.3348ZM7.57006 7.35628C6.59869 7.45437 5.8618 8.30455 5.96228 9.25282C6.06277 10.2011 6.93365 10.8878 7.90501 10.8224C8.87638 10.7243 9.61327 9.8741 9.51279 8.92583C9.4123 7.97756 8.54142 7.25818 7.57006 7.35628ZM111.531 8.76921C107.937 8.76921 105.062 11.1935 105.062 14.9231C105.062 18.6527 107.937 21.0769 111.531 21.0769C115.125 21.0769 118 18.6527 118 14.9231C118 11.2401 115.125 8.76921 111.531 8.76921ZM108.647 15.077C108.647 16.8583 109.889 18.0001 111.609 18.0001C113.329 18.0001 114.571 16.8583 114.571 15.077C114.571 13.2958 113.329 12.154 111.609 12.154C109.889 12.154 108.647 13.2958 108.647 15.077ZM85.1875 8.76921C81.5936 8.76921 78.7185 11.1935 78.7185 14.9231C78.7185 18.6527 81.5936 21.0769 85.1875 21.0769C88.7814 21.0769 91.6564 18.6527 91.6564 14.9231C91.6564 11.2401 88.7814 8.76921 85.1875 8.76921ZM82.1478 15.077C82.1478 16.8583 83.3898 18.0001 85.1095 18.0001C86.8291 18.0001 88.0711 16.8583 88.0711 15.077C88.0711 13.2958 86.8291 12.154 85.1095 12.154C83.3898 12.154 82.1478 13.2958 82.1478 15.077ZM66.3814 9.07703H75.6009V21.0301H72.1137V12.2177H69.3909L69.1043 16.2958C69.0937 16.4058 69.0835 16.5154 69.0733 16.6244C68.8543 18.979 68.6591 21.077 65.235 21.077H63.7541L64.184 18.1708C65.9143 18.1294 65.9296 17.8318 66.239 11.7834C66.2798 10.9855 66.3258 10.0876 66.3814 9.07703ZM49.1018 14.9231C49.1018 11.1935 51.9769 8.76921 55.5708 8.76921C59.1646 8.76921 62.0397 11.2401 62.0397 14.9231C62.0397 18.6527 59.1646 21.0769 55.5708 21.0769C51.9769 21.0769 49.1018 18.6527 49.1018 14.9231ZM55.6486 18.0001C53.9289 18.0001 52.6869 16.8583 52.6869 15.077C52.6869 13.2958 53.9289 12.154 55.6486 12.154C57.3682 12.154 58.6102 13.2958 58.6102 15.077C58.6102 16.8583 57.3682 18.0001 55.6486 18.0001ZM31.2302 17.724C29.3289 17.724 27.6178 17.3981 27.6178 14.8835C27.6178 13.0674 28.6159 12.1826 30.6123 12.2292C31.563 12.2292 32.6562 12.4155 33.4643 12.6949L34.605 9.80776C33.3692 9.2024 31.8957 8.923 30.4697 8.923C26.3819 8.923 24.0053 11.4841 24.0053 15.0232C24.0053 19.2607 26.9523 21.0768 30.4697 21.0768C31.8006 21.0768 33.1791 20.844 34.3198 20.4715L34.2723 17.3049C33.4167 17.5378 32.2759 17.724 31.2302 17.724ZM37.2547 9.07703H47.6986L47.0842 12.1431H44.0598V20.9232H40.61V12.1895H37.2547V9.07703ZM103.806 9.12349L103.815 9.07703V9.12349H103.806ZM103.806 9.12349H93.0592L93.6725 12.1895H96.6916V20.9232H100.182V12.1431H103.202L103.806 9.12349Z" fill="#212121"/>
</svg>
