<svg width="12" height="12" viewBox="0 0 12 12" fill="none" xmlns="http://www.w3.org/2000/svg">
<path fill-rule="evenodd" clip-rule="evenodd" d="M6.00024 12C9.31398 12 12.0002 9.31373 12.0002 6C12.0002 2.68629 9.31398 0 6.00024 0C2.68654 0 0.000244141 2.68629 0.000244141 6C0.000244141 9.31373 2.68654 12 6.00024 12ZM7.19692 3.46967C6.90402 3.17678 6.42915 3.17678 6.13626 3.46967C5.84336 3.76256 5.84336 4.23744 6.13626 4.53033L6.85593 5.25H3.33325C2.91904 5.25 2.58325 5.58579 2.58325 6C2.58325 6.41421 2.91904 6.75 3.33325 6.75H6.85593L6.13626 7.46967C5.84336 7.76256 5.84336 8.23744 6.13626 8.53033C6.42915 8.82322 6.90402 8.82322 7.19692 8.53033L9.19692 6.53033C9.48981 6.23744 9.48981 5.76256 9.19692 5.46967L7.19692 3.46967Z" fill="white"/>
</svg>
