<svg width="18" height="16" viewBox="0 0 18 16" fill="none" xmlns="http://www.w3.org/2000/svg">
<path fill-rule="evenodd" clip-rule="evenodd" d="M9 16C4.0294 16 0 12.4183 0 8C0 3.58172 4.0294 0 9 0C13.9706 0 18 3.58172 18 8C18 9.5743 17.4884 11.0423 16.605 12.28L18 16L13.2553 15.0511C11.9883 15.6565 10.5393 16 9 16ZM5 7C4.44772 7 4 7.44772 4 8C4 8.55229 4.44772 9 5 9H5.01C5.56228 9 6.01 8.55229 6.01 8C6.01 7.44772 5.56228 7 5.01 7H5ZM9 7C8.44772 7 8 7.44772 8 8C8 8.55229 8.44772 9 9 9H9.01C9.56228 9 10.01 8.55229 10.01 8C10.01 7.44772 9.56228 7 9.01 7H9ZM13 7C12.4477 7 12 7.44772 12 8C12 8.55229 12.4477 9 13 9H13.01C13.5623 9 14.01 8.55229 14.01 8C14.01 7.44772 13.5623 7 13.01 7H13Z" fill="white"/>
</svg>
