<svg width="32" height="32" viewBox="0 0 32 32" fill="none" xmlns="http://www.w3.org/2000/svg">
<g filter="url(#filter0_i)">
<circle cx="16" cy="16" r="16" fill="url(#paint0_linear)"/>
</g>
<path opacity="0.1" d="M16 0C12.9319 -3.65871e-08 9.92843 0.882147 7.34762 2.54131C4.7668 4.20048 2.71745 6.5667 1.44378 9.35797C0.170119 12.1492 -0.274143 15.2479 0.163941 18.2846C0.602025 21.3213 1.90398 24.168 3.91465 26.4854C5.92532 28.8029 8.5599 30.4934 11.5044 31.3555C14.449 32.2175 17.5793 32.2148 20.5223 31.3476C23.4653 30.4804 26.097 28.7853 28.1036 26.4644C30.1102 24.1434 31.4072 21.2944 31.84 18.257L23.0506 17.0046C22.858 18.3566 22.2806 19.6247 21.3875 20.6578C20.4943 21.6909 19.3229 22.4454 18.0129 22.8314C16.703 23.2174 15.3096 23.2186 13.999 22.8349C12.6883 22.4512 11.5156 21.6987 10.6207 20.6672C9.72568 19.6357 9.14616 18.3686 8.95116 17.0169C8.75616 15.6652 8.95391 14.286 9.52084 13.0435C10.0878 11.8011 11 10.7479 12.1487 10.0094C13.2975 9.27084 14.6343 8.87819 16 8.87819L16 0Z" fill="black"/>
<g filter="url(#filter1_bd)">
<path fill-rule="evenodd" clip-rule="evenodd" d="M16 23.2C19.9765 23.2 23.2 19.9765 23.2 16C23.2 12.0236 19.9765 8.80005 16 8.80005C12.0236 8.80005 8.80005 12.0236 8.80005 16C8.80005 19.9765 12.0236 23.2 16 23.2ZM17 12.8C17 12.2478 16.5523 11.8 16 11.8C15.4478 11.8 15 12.2478 15 12.8V16C15 16.3344 15.1671 16.6466 15.4453 16.8321L17.8453 18.4321C18.3049 18.7385 18.9257 18.6143 19.2321 18.1547C19.5385 17.6952 19.4143 17.0744 18.9547 16.768L17 15.4649V12.8Z" fill="white" fill-opacity="0.8"/>
</g>
<defs>
<filter id="filter0_i" x="0" y="0" width="38" height="38" filterUnits="userSpaceOnUse" color-interpolation-filters="sRGB">
<feFlood flood-opacity="0" result="BackgroundImageFix"/>
<feBlend mode="normal" in="SourceGraphic" in2="BackgroundImageFix" result="shape"/>
<feColorMatrix in="SourceAlpha" type="matrix" values="0 0 0 0 0 0 0 0 0 0 0 0 0 0 0 0 0 0 127 0" result="hardAlpha"/>
<feOffset dx="6" dy="7"/>
<feGaussianBlur stdDeviation="3"/>
<feComposite in2="hardAlpha" operator="arithmetic" k2="-1" k3="1"/>
<feColorMatrix type="matrix" values="0 0 0 0 1 0 0 0 0 1 0 0 0 0 1 0 0 0 0.16 0"/>
<feBlend mode="normal" in2="shape" result="effect1_innerShadow"/>
</filter>
<filter id="filter1_bd" x="6.92681" y="7.46202" width="18.1465" height="18.6817" filterUnits="userSpaceOnUse" color-interpolation-filters="sRGB">
<feFlood flood-opacity="0" result="BackgroundImageFix"/>
<feGaussianBlur in="BackgroundImage" stdDeviation="0.669014"/>
<feComposite in2="SourceAlpha" operator="in" result="effect1_backgroundBlur"/>
<feColorMatrix in="SourceAlpha" type="matrix" values="0 0 0 0 0 0 0 0 0 0 0 0 0 0 0 0 0 0 127 0"/>
<feOffset dy="1.07042"/>
<feGaussianBlur stdDeviation="0.93662"/>
<feColorMatrix type="matrix" values="0 0 0 0 0 0 0 0 0 0 0 0 0 0 0 0 0 0 0.15 0"/>
<feBlend mode="normal" in2="effect1_backgroundBlur" result="effect2_dropShadow"/>
<feBlend mode="normal" in="SourceGraphic" in2="effect2_dropShadow" result="shape"/>
</filter>
<linearGradient id="paint0_linear" x1="32" y1="2.13358e-06" x2="8.82673" y2="37.4603" gradientUnits="userSpaceOnUse">
<stop stop-color="#F1F466"/>
<stop offset="1" stop-color="#00C2FF"/>
</linearGradient>
</defs>
</svg>
